<svg xmlns="http://www.w3.org/2000/svg" viewBox="0 0 750 500"><g id="freepik--background-simple--inject-17"><path d="M680.76,144.91c-39-56.8-103.68-98-171.35-107.57l-1.51-.21c-99.89-13.41-195.55,93.06-225.17,109s-180.31,25.15-215,77.13S13.54,360.75,71.1,424.46,282.73,432,348.76,442.07c50,7.62,101.63,13.74,152.71,16,45.29,2,97.87,5.62,136.85-21.89,34.27-24.18,40.26-60,54.9-96.22,9.41-23.28,23.63-44.65,24.89-70.19C720.31,225.24,705.91,181.53,680.76,144.91Z" style="fill:#90CAF9"></path><path d="M680.76,144.91c-39-56.8-103.68-98-171.35-107.57l-1.51-.21c-99.89-13.41-195.55,93.06-225.17,109s-180.31,25.15-215,77.13S13.54,360.75,71.1,424.46,282.73,432,348.76,442.07c50,7.62,101.63,13.74,152.71,16,45.29,2,97.87,5.62,136.85-21.89,34.27-24.18,40.26-60,54.9-96.22,9.41-23.28,23.63-44.65,24.89-70.19C720.31,225.24,705.91,181.53,680.76,144.91Z" style="fill:#fff;opacity:0.7000000000000001"></path></g><g id="freepik--Floor--inject-17"><path d="M685.74,434.37h-13.3a.51.51,0,0,1-.5-.5.5.5,0,0,1,.5-.5h13.3a.5.5,0,0,1,.5.5A.5.5,0,0,1,685.74,434.37Z" style="fill:#263238"></path><path d="M668.23,434.37H60.82a.5.5,0,0,1-.5-.5.5.5,0,0,1,.5-.5H668.23a.5.5,0,0,1,.5.5A.51.51,0,0,1,668.23,434.37Z" style="fill:#263238"></path></g><g id="freepik--Plant--inject-17"><path d="M129.14,317.3h0a.1.1,0,0,0-.05-.11.09.09,0,0,0-.12.05,117.05,117.05,0,0,0-6.18,19.37,179.27,179.27,0,0,0-3.41,20.09l-.48,5.08c-.08.84-.17,1.69-.23,2.54l-.14,2.54c-.07,1.7-.18,3.4-.23,5.1l0,5.11.06,2.55c0,.85.1,1.69.15,2.54.13,1.7.23,3.39.39,5.09.33,3.38.83,6.74,1.36,10.09a.08.08,0,0,0,.09.08.09.09,0,0,0,.09-.09h0c0-1.7-.09-3.39-.12-5.08s-.2-3.37-.18-5.07,0-3.37,0-5.06l-.05-2.53.05-2.53,0-5.06.14-5.05,0-2.53c0-.84.09-1.68.14-2.52l.31-5.05a180.68,180.68,0,0,1,2.86-20A117.76,117.76,0,0,1,129.14,317.3Z" style="fill:#263238"></path><path d="M129.87,343.74a.09.09,0,0,0-.06-.11.08.08,0,0,0-.11.05,117.84,117.84,0,0,0-5.73,26c-.44,4.42-.94,8.85-1,13.3a110.08,110.08,0,0,0,.47,13.34s0,.08.08.08a.08.08,0,0,0,.1-.08c.51-4.43.83-8.85,1.13-13.26s.36-8.85.65-13.26A119.12,119.12,0,0,1,127,356.69,117.46,117.46,0,0,1,129.87,343.74Z" style="fill:#263238"></path><path d="M144.52,353a.08.08,0,0,0-.12,0,44.82,44.82,0,0,0-9.8,8.54,40.43,40.43,0,0,0-3.83,5.33l-.79,1.49-.61,1.54a12.65,12.65,0,0,0-.54,1.57c-.16.52-.34,1-.48,1.58a63.29,63.29,0,0,0-2,12.93,74.54,74.54,0,0,0,.49,13s0,.07.08.08a.11.11,0,0,0,.1-.09l1.11-12.89a114.7,114.7,0,0,1,1.64-12.71c.11-.51.26-1,.39-1.53a14.88,14.88,0,0,1,.46-1.52l.52-1.49.67-1.41a38.59,38.59,0,0,1,3.51-5.33,44.21,44.21,0,0,1,9.21-9h0A.08.08,0,0,0,144.52,353Z" style="fill:#263238"></path><path d="M137.43,369.6A14.33,14.33,0,0,0,133,375a31.33,31.33,0,0,0-2.49,6.56,17,17,0,0,0-.44,1.7l-.4,1.72a29,29,0,0,0-.44,3.48c0,1.17,0,2.33,0,3.5a31.57,31.57,0,0,0,.46,3.48.12.12,0,0,0,.07.07.09.09,0,0,0,.11-.07,32.13,32.13,0,0,0,.62-3.43c.18-1.13.36-2.26.49-3.39s.32-2.24.4-3.37.24-2.26.49-3.37a30.69,30.69,0,0,1,1.91-6.5,14.39,14.39,0,0,1,3.74-5.59h0a.09.09,0,0,0,0-.12A.08.08,0,0,0,137.43,369.6Z" style="fill:#263238"></path><path d="M116.88,382.51c-.49-5.72-1.43-11.39-2.32-17.05s-1.88-11.31-2.92-16.94-2.19-11.25-3.41-16.85a.08.08,0,0,0-.1-.07.09.09,0,0,0-.07.11c1,5.64,1.86,11.29,2.7,17s1.67,11.33,2.38,17,1.25,11.37,2,17l2.09,17a.1.1,0,0,0,.09.08.09.09,0,0,0,.09-.09c.07-1.43.07-2.87.1-4.3s-.06-2.87-.08-4.31C117.34,388.23,117.09,385.37,116.88,382.51Z" style="fill:#263238"></path><path d="M113.44,382.43c-.3-2.27-.72-4.52-1.15-6.77l-.8-3.34c-.27-1.11-.52-2.23-.84-3.33a94.71,94.71,0,0,0-4.38-13l-.68-1.58-.77-1.54c-.48-1-1.07-2-1.62-3a25.68,25.68,0,0,0-4.13-5.48.09.09,0,0,0-.13.13h0a25.5,25.5,0,0,1,3.78,5.6c.5,1,1,2,1.45,3.07l.67,1.55.6,1.59a94.73,94.73,0,0,1,3.81,13c.52,2.2.87,4.45,1.29,6.67l.54,3.35c.19,1.11.43,2.22.59,3.34.35,2.24.77,4.47,1.16,6.71s.75,4.49,1.23,6.73a.08.08,0,0,0,.08.07.09.09,0,0,0,.09-.09c0-2.28,0-4.57-.16-6.85S113.68,384.7,113.44,382.43Z" style="fill:#263238"></path><path d="M108.71,382.72c-1.06-3-2.29-5.94-3.63-8.82a79.4,79.4,0,0,0-4.55-8.36.1.1,0,0,0-.12,0,.09.09,0,0,0,0,.12,79.23,79.23,0,0,1,3.89,8.62c1.17,2.93,2.21,5.9,3.09,8.91s1.54,6.09,2.34,9.12,1.52,6.08,2.45,9.14a.1.1,0,0,0,.09.07.09.09,0,0,0,.09-.09,45.37,45.37,0,0,0-.89-9.52A59.49,59.49,0,0,0,108.71,382.72Z" style="fill:#263238"></path><path d="M108.51,392.72a20.5,20.5,0,0,0-2.52-5.28,22.08,22.08,0,0,0-3.66-4.56,16.65,16.65,0,0,0-2.34-1.76,9.39,9.39,0,0,0-2.64-1.19.08.08,0,0,0-.1.05.08.08,0,0,0,0,.11h0a13.06,13.06,0,0,1,4.39,3.41,20.77,20.77,0,0,1,3.06,4.63c.86,1.64,1.31,3.46,2.07,5.15.33.87.66,1.74,1.05,2.61a22.46,22.46,0,0,0,1.15,2.64h0a.09.09,0,0,0,.17,0,22.08,22.08,0,0,0-.1-2.93C108.94,394.62,108.74,393.67,108.51,392.72Z" style="fill:#263238"></path><path d="M108.87,339.86A16.27,16.27,0,0,1,97.33,327.6c-2.17-10.1,4.8-5.77-1.45-21.64s-4.81-19.47-2.64-24,3.36-3.13,5.29,2.89,8.89,15.38,11.54,32.93S108.87,339.86,108.87,339.86Z" style="fill:#90CAF9"></path><path d="M127.38,322.79s-6.25-2.16-6.49-13.94,4.57-9.38,5.29-24,1.68-25,4.32-25.25,9.62,7.21,12,23.56-3.13,27.17-7.94,32S127.38,322.79,127.38,322.79Z" style="fill:#90CAF9"></path><path d="M105.5,354.05s-1.44-8.66-4.33-12.75S92,333.61,88,325.68s-8.66-11.78-8.42-.48,5.29,17.07,11.54,20.91S105.5,354.05,105.5,354.05Z" style="fill:#90CAF9"></path><path d="M102.86,369s-5.77-11.06-14.19-19.23-15.15-12.26-12.74-8.17,5.29,3.84,9.37,11.05,2.89,12.51,8.66,16.59S102.86,369,102.86,369Z" style="fill:#90CAF9"></path><path d="M102.13,383.14c-.24-.72-.48-6-8.65-10.34s-15.87-2.64-14.91-.48,6,5.77,11.06,7.93S102.13,383.14,102.13,383.14Z" style="fill:#90CAF9"></path><path d="M126.9,354.53s-3.61-4.57-1.69-14.19,6.26-7.21,11.06-12.26,3.85-5.77,8.66-11.06,9.14-8.17,11.06-6-1,8.9-3.85,12.74-7.45,5.77-9.61,10.58-1.21,12.5-6.74,16.11S126.9,354.53,126.9,354.53Z" style="fill:#90CAF9"></path><path d="M138.92,357.17s8.65-9.85,14.91-17.07,8.65-12.74,8.89-7.93,2.16,8.65-2.88,14.91S138.92,357.17,138.92,357.17Z" style="fill:#90CAF9"></path><path d="M134.35,373s-.24-3.85,13.46-12.74,19.48-10.58,18-7-7.46,7.21-13.95,13.7S134.35,373,134.35,373Z" style="fill:#90CAF9"></path><path d="M109.44,339.34a.49.49,0,0,1-.49-.41c0-.17-3.26-17.37-6.58-29.47s-5.5-19.63-5.52-19.71a.5.5,0,0,1,.34-.62.51.51,0,0,1,.62.34c0,.08,2.2,7.6,5.53,19.73s6.56,29.37,6.59,29.55a.5.5,0,0,1-.4.58Z" style="fill:#263238"></path><path d="M126.82,323.47a.36.36,0,0,1-.14,0,.5.5,0,0,1-.33-.63c.06-.18,5.85-18.79,7.75-29.92,1.71-10.07.15-17.82-.88-22.95-.11-.58-.22-1.13-.32-1.64a.51.51,0,0,1,.4-.59.5.5,0,0,1,.58.4l.32,1.63c1.05,5.21,2.63,13.07.88,23.31-1.9,11.21-7.72,29.88-7.78,30.06A.49.49,0,0,1,126.82,323.47Z" style="fill:#263238"></path><path d="M104.74,354.19a.51.51,0,0,1-.43-.26,91.61,91.61,0,0,0-8.81-12.54c-1.35-1.6-2.6-3-3.81-4.33-3.48-3.85-6.23-6.89-8-11.44a.5.5,0,0,1,.28-.65.51.51,0,0,1,.65.28c1.75,4.39,4.45,7.37,7.86,11.14,1.21,1.35,2.47,2.74,3.83,4.35a93.41,93.41,0,0,1,8.92,12.7.5.5,0,0,1-.19.68A.47.47,0,0,1,104.74,354.19Z" style="fill:#263238"></path><path d="M126.9,355h-.08a.5.5,0,0,1-.42-.57c.08-.48,2-11.74,6.59-17.78,1.78-2.34,4.22-5.15,6.8-8.13,4.08-4.71,8.29-9.57,10.48-13.22a.5.5,0,1,1,.86.52c-2.23,3.72-6.48,8.62-10.59,13.36-2.57,3-5,5.76-6.75,8.08-4.44,5.84-6.38,17.22-6.4,17.33A.49.49,0,0,1,126.9,355Z" style="fill:#263238"></path><path d="M101.57,383.38a.46.46,0,0,1-.27-.09c-.08-.05-8.14-5.28-13.82-8.12a.5.5,0,0,1-.22-.67.49.49,0,0,1,.67-.22c5.73,2.86,13.83,8.12,13.91,8.18a.5.5,0,0,1,.15.69A.51.51,0,0,1,101.57,383.38Z" style="fill:#263238"></path><path d="M125.1,433.87H114.51a4.63,4.63,0,0,1-4.28-2.85c-3.46-8.29-12.7-32.2-7.13-39,5.29-6.46,28.12-6.46,33.41,0,5.57,6.79-3.67,30.7-7.13,39A4.63,4.63,0,0,1,125.1,433.87Z" style="fill:#263238"></path><path d="M125.1,434.37H114.51a5.14,5.14,0,0,1-4.75-3.16c-4-9.59-12.69-32.62-7.05-39.49,3-3.71,10.82-5,17.09-5s14.06,1.32,17.1,5c5.64,6.87-3.05,29.9-7.05,39.49A5.13,5.13,0,0,1,125.1,434.37Zm-5.3-46.68c-7.59,0-14,1.83-16.32,4.66-5.44,6.64,4.14,31.13,7.21,38.47a4.12,4.12,0,0,0,3.82,2.55H125.1a4.12,4.12,0,0,0,3.82-2.55c3.07-7.34,12.65-31.83,7.21-38.47C133.81,389.52,127.4,387.69,119.8,387.69Z" style="fill:#263238"></path></g><g id="freepik--Clock--inject-17"><g style="opacity:0.30000000000000004"><path d="M589.42,143.58a29.11,29.11,0,1,1,29.11-29.11A29.14,29.14,0,0,1,589.42,143.58Zm0-57.22a28.11,28.11,0,1,0,28.11,28.11A28.14,28.14,0,0,0,589.42,86.36Z"></path><path d="M589.42,141.4a26.93,26.93,0,1,1,26.93-26.93A27,27,0,0,1,589.42,141.4Zm0-52.86a25.93,25.93,0,1,0,25.93,25.93A26,26,0,0,0,589.42,88.54Z"></path><path d="M589.42,138.25a.5.5,0,0,1-.5-.5V114.47a.49.49,0,0,1,.19-.39l8.77-6.91a.5.5,0,1,1,.62.78l-8.58,6.76v23A.51.51,0,0,1,589.42,138.25Z"></path></g></g><g id="freepik--Window--inject-17"><g style="opacity:0.30000000000000004"><path d="M414.06,232.64H314a.5.5,0,0,1-.5-.5V72.7a.5.5,0,0,1,.5-.5h100a.5.5,0,0,1,.5.5V232.14A.5.5,0,0,1,414.06,232.64Zm-99.53-1h99V73.2h-99Z"></path><path d="M413.51,79.26H314.17a.5.5,0,0,1-.5-.5.51.51,0,0,1,.5-.5h99.34a.5.5,0,0,1,.5.5A.5.5,0,0,1,413.51,79.26Z"></path><path d="M413.51,86.58H314.17a.5.5,0,0,1-.5-.5.51.51,0,0,1,.5-.5h99.34a.5.5,0,0,1,.5.5A.5.5,0,0,1,413.51,86.58Z"></path><path d="M413.51,93.9H314.17a.5.5,0,0,1-.5-.5.51.51,0,0,1,.5-.5h99.34a.5.5,0,0,1,.5.5A.5.5,0,0,1,413.51,93.9Z"></path><path d="M413.51,101.22H314.17a.5.5,0,0,1-.5-.5.51.51,0,0,1,.5-.5h99.34a.5.5,0,0,1,.5.5A.5.5,0,0,1,413.51,101.22Z"></path><path d="M413.51,108.54H314.17a.5.5,0,0,1-.5-.5.51.51,0,0,1,.5-.5h99.34a.5.5,0,0,1,.5.5A.5.5,0,0,1,413.51,108.54Z"></path><path d="M413.51,115.86H314.17a.5.5,0,0,1,0-1h99.34a.5.5,0,0,1,0,1Z"></path><path d="M413.51,123.18H314.17a.5.5,0,0,1,0-1h99.34a.5.5,0,0,1,0,1Z"></path><path d="M413.51,130.5H314.17a.5.5,0,0,1,0-1h99.34a.5.5,0,0,1,0,1Z"></path><path d="M413.51,137.82H314.17a.5.5,0,0,1,0-1h99.34a.5.5,0,0,1,0,1Z"></path><path d="M413.51,145.14H314.17a.5.5,0,0,1,0-1h99.34a.5.5,0,0,1,0,1Z"></path><path d="M413.51,152.46H314.17a.5.5,0,0,1,0-1h99.34a.5.5,0,0,1,0,1Z"></path><path d="M413.51,159.78H314.17a.5.5,0,0,1,0-1h99.34a.5.5,0,0,1,0,1Z"></path><path d="M413.51,167.1H314.17a.5.5,0,0,1,0-1h99.34a.5.5,0,0,1,0,1Z"></path><path d="M413.51,174.42H314.17a.5.5,0,0,1,0-1h99.34a.5.5,0,0,1,0,1Z"></path><path d="M413.51,181.74H314.17a.5.5,0,0,1,0-1h99.34a.5.5,0,0,1,0,1Z"></path><path d="M413.51,189.06H314.17a.51.51,0,0,1-.5-.5.5.5,0,0,1,.5-.5h99.34a.5.5,0,0,1,.5.5A.5.5,0,0,1,413.51,189.06Z"></path><path d="M413.51,196.38H314.17a.51.51,0,0,1-.5-.5.5.5,0,0,1,.5-.5h99.34a.5.5,0,0,1,.5.5A.5.5,0,0,1,413.51,196.38Z"></path><path d="M413.51,203.7H314.17a.51.51,0,0,1-.5-.5.5.5,0,0,1,.5-.5h99.34a.5.5,0,0,1,.5.5A.5.5,0,0,1,413.51,203.7Z"></path><path d="M413.51,211H314.17a.51.51,0,0,1-.5-.5.5.5,0,0,1,.5-.5h99.34a.5.5,0,0,1,.5.5A.5.5,0,0,1,413.51,211Z"></path><path d="M413.51,218.34H314.17a.51.51,0,0,1-.5-.5.5.5,0,0,1,.5-.5h99.34a.5.5,0,0,1,.5.5A.5.5,0,0,1,413.51,218.34Z"></path><path d="M413.51,225.66H314.17a.51.51,0,0,1-.5-.5.5.5,0,0,1,.5-.5h99.34a.5.5,0,0,1,.5.5A.5.5,0,0,1,413.51,225.66Z"></path><path d="M518.87,232.64h-100a.5.5,0,0,1-.5-.5V72.7a.5.5,0,0,1,.5-.5h100a.5.5,0,0,1,.5.5V232.14A.5.5,0,0,1,518.87,232.64Zm-99.53-1h99V73.2h-99Z"></path><path d="M518.32,79.26H419a.5.5,0,0,1-.5-.5.51.51,0,0,1,.5-.5h99.34a.5.5,0,0,1,.5.5A.5.5,0,0,1,518.32,79.26Z"></path><path d="M518.32,86.58H419a.5.5,0,0,1-.5-.5.51.51,0,0,1,.5-.5h99.34a.5.5,0,0,1,.5.5A.5.5,0,0,1,518.32,86.58Z"></path><path d="M518.32,93.9H419a.5.5,0,0,1-.5-.5.51.51,0,0,1,.5-.5h99.34a.5.5,0,0,1,.5.5A.5.5,0,0,1,518.32,93.9Z"></path><path d="M518.32,101.22H419a.5.5,0,0,1-.5-.5.51.51,0,0,1,.5-.5h99.34a.5.5,0,0,1,.5.5A.5.5,0,0,1,518.32,101.22Z"></path><path d="M518.32,108.54H419a.5.5,0,0,1-.5-.5.51.51,0,0,1,.5-.5h99.34a.5.5,0,0,1,.5.5A.5.5,0,0,1,518.32,108.54Z"></path><path d="M518.32,115.86H419a.5.5,0,0,1,0-1h99.34a.5.5,0,0,1,0,1Z"></path><path d="M518.32,123.18H419a.5.5,0,0,1,0-1h99.34a.5.5,0,0,1,0,1Z"></path><path d="M518.32,130.5H419a.5.5,0,0,1,0-1h99.34a.5.5,0,0,1,0,1Z"></path><path d="M518.32,137.82H419a.5.5,0,0,1,0-1h99.34a.5.5,0,0,1,0,1Z"></path><path d="M518.32,145.14H419a.5.5,0,0,1,0-1h99.34a.5.5,0,0,1,0,1Z"></path><path d="M518.32,152.46H419a.5.5,0,0,1,0-1h99.34a.5.5,0,0,1,0,1Z"></path><path d="M518.32,159.78H419a.5.5,0,0,1,0-1h99.34a.5.5,0,0,1,0,1Z"></path><path d="M518.32,167.1H419a.5.5,0,0,1,0-1h99.34a.5.5,0,0,1,0,1Z"></path><path d="M518.32,174.42H419a.5.5,0,0,1,0-1h99.34a.5.5,0,0,1,0,1Z"></path><path d="M518.32,181.74H419a.5.5,0,0,1,0-1h99.34a.5.5,0,0,1,0,1Z"></path><path d="M518.32,189.06H419a.51.51,0,0,1-.5-.5.5.5,0,0,1,.5-.5h99.34a.5.5,0,0,1,.5.5A.5.5,0,0,1,518.32,189.06Z"></path><path d="M518.32,196.38H419a.51.51,0,0,1-.5-.5.5.5,0,0,1,.5-.5h99.34a.5.5,0,0,1,.5.5A.5.5,0,0,1,518.32,196.38Z"></path><path d="M518.32,203.7H419a.51.51,0,0,1-.5-.5.5.5,0,0,1,.5-.5h99.34a.5.5,0,0,1,.5.5A.5.5,0,0,1,518.32,203.7Z"></path><path d="M518.32,211H419a.51.51,0,0,1-.5-.5.5.5,0,0,1,.5-.5h99.34a.5.5,0,0,1,.5.5A.5.5,0,0,1,518.32,211Z"></path><path d="M518.32,218.34H419a.51.51,0,0,1-.5-.5.5.5,0,0,1,.5-.5h99.34a.5.5,0,0,1,.5.5A.5.5,0,0,1,518.32,218.34Z"></path><path d="M518.32,225.66H419a.51.51,0,0,1-.5-.5.5.5,0,0,1,.5-.5h99.34a.5.5,0,0,1,.5.5A.5.5,0,0,1,518.32,225.66Z"></path></g></g><g id="freepik--Picture--inject-17"><g style="opacity:0.30000000000000004"><path d="M259.68,241H140.28a.5.5,0,0,1-.5-.5V81.53a.5.5,0,0,1,.5-.5h119.4a.5.5,0,0,1,.5.5v159A.5.5,0,0,1,259.68,241Zm-118.9-1h118.4V82H140.78Z"></path><path d="M255.79,235.79H144.17a.5.5,0,0,1-.5-.5V86.71a.5.5,0,0,1,.5-.5H255.79a.5.5,0,0,1,.5.5V235.29A.5.5,0,0,1,255.79,235.79Zm-111.12-1H255.29V87.21H144.67Z"></path><path d="M144.17,196.32a.5.5,0,0,1-.23-.94c11.57-6,39.27-23.3,46.7-54.55C196.77,115,205.47,97.68,218,86.34a.49.49,0,0,1,.7,0,.5.5,0,0,1,0,.71c-12.39,11.19-21,28.34-27.07,54-7.52,31.65-35.52,49.15-47.21,55.21A.59.59,0,0,1,144.17,196.32Z"></path><path d="M198.47,235.8a.49.49,0,0,1-.47-.36c-8-25.85-17.29-74,9.72-106.25,14.46-17.25,30.56-30.35,47.85-38.93a.49.49,0,0,1,.67.22.5.5,0,0,1-.23.67c-17.16,8.53-33.15,21.54-47.52,38.68-26.71,31.86-17.44,79.66-9.54,105.32a.51.51,0,0,1-.33.63Z"></path><path d="M144.17,156.11a.52.52,0,0,1-.38-.17.51.51,0,0,1,.06-.71c6.39-5.48,14.41-15.78,16.27-33.74,1.77-17.08-3.88-28.17-8.93-34.46a.51.51,0,1,1,.79-.63c5.16,6.44,10.94,17.77,9.13,35.19C159.22,139.88,151,150.4,144.5,156A.52.52,0,0,1,144.17,156.11Z"></path><path d="M242.29,235.8a.48.48,0,0,1-.42-.23c-4.45-6.77-10.09-9.45-16.06-12.29-5.46-2.59-11.11-5.27-15.68-11.33a23.22,23.22,0,0,1-3.73-21c3.39-12.1,14.84-23.08,30.63-29.36a44.87,44.87,0,0,0,18.37-13.15.52.52,0,0,1,.71-.07.5.5,0,0,1,.07.7,45.86,45.86,0,0,1-18.78,13.45c-15.51,6.16-26.73,16.9-30,28.7a22.24,22.24,0,0,0,3.56,20.1c4.42,5.86,10,8.49,15.31,11,5.83,2.77,11.87,5.64,16.46,12.64a.51.51,0,0,1-.14.7A.56.56,0,0,1,242.29,235.8Z"></path><path d="M175.22,235.8h0a.52.52,0,0,1-.49-.51c.28-12.66-1.79-21.55-6.16-26.43a5.18,5.18,0,0,0-4.43-1.93c-4.82.36-11.58,7-19.54,19.13a.5.5,0,0,1-.84-.55c8.26-12.6,15.09-19.19,20.31-19.58a6.21,6.21,0,0,1,5.25,2.27c4.54,5.07,6.69,14.19,6.41,27.11A.49.49,0,0,1,175.22,235.8Z"></path><path d="M179.55,119.91a2.89,2.89,0,0,1-.88-.14c-5.06-1.71-6.45-18.92-6.73-33a.51.51,0,0,1,.49-.51.47.47,0,0,1,.51.49c.38,19.24,2.58,31,6.05,32.12,1.13.38,2.51-.44,4.11-2.45,6.4-8,11.43-20.65,14.52-29.82a.5.5,0,0,1,.64-.31.5.5,0,0,1,.31.63c-3.12,9.24-8.19,22-14.69,30.13C182.34,118.94,180.89,119.91,179.55,119.91Z"></path><path d="M229.91,141.41c-1.67,0-2.71-.46-3.16-1.38-1.79-3.69,7.87-14.68,28.71-32.66a.5.5,0,0,1,.66.76c-19.31,16.65-30,28.41-28.47,31.46.43.89,2.15,1.06,5,.52,7.79-1.52,15.46-6,22.83-13.4a.49.49,0,0,1,.7.7c-7.5,7.52-15.35,12.12-23.34,13.68A15.87,15.87,0,0,1,229.91,141.41Z"></path></g></g><g id="freepik--Device--inject-17"><rect x="295.86" y="230.13" width="66.2" height="45.47" style="fill:#263238"></rect><path d="M362.06,276.09h-66.2a.5.5,0,0,1-.5-.5V230.12a.51.51,0,0,1,.5-.5h66.2a.5.5,0,0,1,.5.5v45.47A.5.5,0,0,1,362.06,276.09Zm-65.7-1h65.2V230.62h-65.2Z" style="fill:#263238"></path><rect x="298.15" y="232.6" width="61.63" height="40.52" style="fill:#90CAF9"></rect><path d="M359.78,273.62H298.15a.5.5,0,0,1-.5-.5V232.6a.5.5,0,0,1,.5-.5h61.63a.5.5,0,0,1,.5.5v40.52A.51.51,0,0,1,359.78,273.62Zm-61.13-1h60.63V233.1H298.65Z" style="fill:#263238"></path><rect x="298.15" y="232.6" width="61.63" height="6.13" style="fill:#fff"></rect><path d="M359.78,239.23H298.15a.5.5,0,0,1-.5-.5V232.6a.5.5,0,0,1,.5-.5h61.63a.5.5,0,0,1,.5.5v6.13A.5.5,0,0,1,359.78,239.23Zm-61.13-1h60.63V233.1H298.65Z" style="fill:#263238"></path><rect x="298.15" y="271.2" width="61.63" height="1.92" style="fill:#fff"></rect><path d="M359.78,273.62H298.15a.5.5,0,0,1-.5-.5V271.2a.5.5,0,0,1,.5-.5h61.63a.5.5,0,0,1,.5.5v1.92A.51.51,0,0,1,359.78,273.62Zm-61.13-1h60.63v-.92H298.65Z" style="fill:#263238"></path><path d="M356.76,277.41H298.84a8.68,8.68,0,0,1-6.55-3l-1.06-1.23h73.14l-1.06,1.23A8.68,8.68,0,0,1,356.76,277.41Z" style="fill:#263238"></path><path d="M356.76,277.91H298.84a9.18,9.18,0,0,1-6.92-3.16l-1.07-1.23a.49.49,0,0,1-.08-.53.51.51,0,0,1,.46-.3h73.14a.51.51,0,0,1,.46.3.49.49,0,0,1-.08.53l-1.07,1.23A9.18,9.18,0,0,1,356.76,277.91Zm-64.44-4.22.35.4a8.16,8.16,0,0,0,6.17,2.82h57.92a8.16,8.16,0,0,0,6.17-2.82l.35-.4Z" style="fill:#263238"></path></g><g id="freepik--speech-bubble-1--inject-17"><path d="M355.66,177.56H303.89a4,4,0,0,0-4,4V218a4,4,0,0,0,4,4h19.42l6.85,18.38L336,222h19.71a4,4,0,0,0,4-4V181.55A4,4,0,0,0,355.66,177.56Z" style="fill:#263238"></path><path d="M330.16,240.87a.5.5,0,0,1-.47-.33l-6.73-18H303.89A4.5,4.5,0,0,1,299.4,218V181.55a4.5,4.5,0,0,1,4.49-4.49h51.77a4.5,4.5,0,0,1,4.49,4.49V218a4.5,4.5,0,0,1-4.49,4.49H336.31l-5.67,18a.53.53,0,0,1-.47.35Zm-26.27-62.81a3.5,3.5,0,0,0-3.49,3.49V218a3.5,3.5,0,0,0,3.49,3.49h19.42a.5.5,0,0,1,.47.32l6.34,17,5.35-17a.49.49,0,0,1,.47-.35h19.72a3.5,3.5,0,0,0,3.49-3.49V181.55a3.5,3.5,0,0,0-3.49-3.49Z" style="fill:#263238"></path><path d="M353.87,176.3H302.11a4,4,0,0,0-4,4v36.45a4,4,0,0,0,4,4h19.42l6.84,18.38,5.79-18.38h19.71a4,4,0,0,0,4-4V180.29A4,4,0,0,0,353.87,176.3Z" style="fill:#fff"></path><path d="M328.37,239.61a.49.49,0,0,1-.46-.33l-6.73-18.05H302.11a4.5,4.5,0,0,1-4.49-4.49V180.29a4.5,4.5,0,0,1,4.49-4.49h51.76a4.5,4.5,0,0,1,4.49,4.49v36.45a4.5,4.5,0,0,1-4.49,4.49H334.53l-5.68,18a.51.51,0,0,1-.46.35ZM302.11,176.8a3.5,3.5,0,0,0-3.49,3.49v36.45a3.5,3.5,0,0,0,3.49,3.49h19.42a.51.51,0,0,1,.47.32l6.34,17,5.34-17a.5.5,0,0,1,.48-.35h19.71a3.49,3.49,0,0,0,3.49-3.49V180.29a3.49,3.49,0,0,0-3.49-3.49Z" style="fill:#263238"></path><rect x="311.14" y="190.47" width="34.85" height="22.98" style="fill:#fff"></rect><path d="M346,214H311.14a.5.5,0,0,1-.5-.5v-23a.5.5,0,0,1,.5-.5H346a.5.5,0,0,1,.5.5v23A.5.5,0,0,1,346,214Zm-34.35-1h33.85V191H311.64Z" style="fill:#263238"></path><path d="M328.57,202.46a.54.54,0,0,1-.28-.08l-17.42-11.49a.5.5,0,1,1,.55-.83l17.15,11.3,17.14-11.3a.5.5,0,1,1,.56.83l-17.43,11.49A.53.53,0,0,1,328.57,202.46Z" style="fill:#263238"></path><circle cx="314.2" cy="190.09" r="8.43" style="fill:#90CAF9"></circle><path d="M314.21,199a8.93,8.93,0,1,1,8.92-8.93A8.94,8.94,0,0,1,314.21,199Zm0-16.85a7.93,7.93,0,1,0,7.92,7.92A7.93,7.93,0,0,0,314.21,182.17Z" style="fill:#263238"></path><path d="M309.66,194.36v-1.14l1.87-2.87c.14-.21.28-.41.4-.61a3.19,3.19,0,0,0,.31-.61,1.73,1.73,0,0,0,.12-.64.76.76,0,0,0-.14-.5.45.45,0,0,0-.36-.17.56.56,0,0,0-.41.15.72.72,0,0,0-.19.38,2.23,2.23,0,0,0-.06.54v.39h-1.56v-.42a3.26,3.26,0,0,1,.23-1.24,1.77,1.77,0,0,1,.7-.85,2.26,2.26,0,0,1,1.26-.32,2.12,2.12,0,0,1,1.58.55,2.06,2.06,0,0,1,.54,1.52,2.49,2.49,0,0,1-.15.87,3.91,3.91,0,0,1-.4.79l-.52.79-1.43,2.13h2.29v1.26Z" style="fill:#263238"></path><path d="M316.67,194.5a2.28,2.28,0,0,1-1.29-.3,1.49,1.49,0,0,1-.59-.85,4.45,4.45,0,0,1-.16-1.27h1.55a4.67,4.67,0,0,0,.05.72.65.65,0,0,0,.18.4.47.47,0,0,0,.37.11.41.41,0,0,0,.36-.2,1.3,1.3,0,0,0,.12-.56q0-.36,0-.87a6.74,6.74,0,0,0,0-.68,1,1,0,0,0-.18-.48.43.43,0,0,0-.39-.18.48.48,0,0,0-.39.18,1,1,0,0,0-.22.54h-1.39l.14-4.5h3.64v1.35h-2.35l-.08,1.61a.75.75,0,0,1,.36-.24,2.22,2.22,0,0,1,.58-.13,1.47,1.47,0,0,1,1,.22,1.65,1.65,0,0,1,.61.86,4.15,4.15,0,0,1,.21,1.41,8.23,8.23,0,0,1-.08,1.16,2.58,2.58,0,0,1-.29.9,1.55,1.55,0,0,1-.65.59A2.5,2.5,0,0,1,316.67,194.5Z" style="fill:#263238"></path></g><g id="freepik--Table--inject-17"><rect x="233.64" y="282.26" width="6.34" height="150.91" style="fill:#fff"></rect><path d="M240,433.66h-6.33a.5.5,0,0,1-.5-.5V282.26a.5.5,0,0,1,.5-.5H240a.5.5,0,0,1,.5.5v150.9A.5.5,0,0,1,240,433.66Zm-5.83-1h5.33V282.76h-5.33Z" style="fill:#263238"></path><rect x="360.16" y="281.86" width="63.19" height="103.77" style="fill:#fff"></rect><path d="M423.36,386.13h-63.2a.5.5,0,0,1-.5-.5V281.86a.5.5,0,0,1,.5-.5h63.2a.5.5,0,0,1,.5.5V385.63A.5.5,0,0,1,423.36,386.13Zm-62.7-1h62.2V282.36h-62.2Z" style="fill:#263238"></path><rect x="363.35" y="287.09" width="56.82" height="27.45" style="fill:#fff"></rect><path d="M420.17,315H363.35a.5.5,0,0,1-.5-.5V287.09a.5.5,0,0,1,.5-.5h56.82a.5.5,0,0,1,.5.5v27.45A.5.5,0,0,1,420.17,315Zm-56.32-1h55.82V287.59H363.85Z" style="fill:#263238"></path><rect x="363.35" y="319.87" width="56.82" height="27.45" style="fill:#fff"></rect><path d="M420.17,347.82H363.35a.5.5,0,0,1-.5-.5V319.87a.5.5,0,0,1,.5-.5h56.82a.5.5,0,0,1,.5.5v27.45A.5.5,0,0,1,420.17,347.82Zm-56.32-1h55.82V320.37H363.85Z" style="fill:#263238"></path><rect x="363.35" y="352.64" width="56.82" height="27.45" style="fill:#fff"></rect><path d="M420.17,380.59H363.35a.5.5,0,0,1-.5-.5V352.64a.5.5,0,0,1,.5-.5h56.82a.5.5,0,0,1,.5.5v27.45A.5.5,0,0,1,420.17,380.59Zm-56.32-1h55.82V353.14H363.85Z" style="fill:#263238"></path><rect x="385.33" y="299.69" width="11.88" height="2.38" style="fill:#263238"></rect><rect x="385.33" y="332.56" width="11.88" height="2.38" style="fill:#263238"></rect><rect x="385.33" y="365.43" width="11.88" height="2.38" style="fill:#263238"></rect><rect x="422.96" y="282.26" width="6.34" height="150.91" style="fill:#fff"></rect><path d="M429.3,433.66H423a.5.5,0,0,1-.5-.5V282.26a.5.5,0,0,1,.5-.5h6.34a.5.5,0,0,1,.5.5v150.9A.5.5,0,0,1,429.3,433.66Zm-5.84-1h5.34V282.76h-5.34Z" style="fill:#263238"></path><rect x="228.32" y="277.38" width="205.3" height="6.07" style="fill:#fff"></rect><path d="M433.62,284H228.32a.5.5,0,0,1-.5-.5v-6.07a.5.5,0,0,1,.5-.5h205.3a.5.5,0,0,1,.5.5v6.07A.51.51,0,0,1,433.62,284Zm-204.8-1h204.3v-5.07H228.82Z" style="fill:#263238"></path></g><g id="freepik--character-2--inject-17"><polygon points="450.36 138.75 453.08 165.72 460.86 168.44 459.24 141.1 450.36 138.75" style="fill:#263238"></polygon><path d="M460.86,168.94a.45.45,0,0,1-.16,0l-7.79-2.71a.51.51,0,0,1-.33-.42l-2.71-27a.48.48,0,0,1,.17-.43.47.47,0,0,1,.45-.1l8.87,2.35a.5.5,0,0,1,.37.45l1.63,27.34a.49.49,0,0,1-.5.53Zm-7.31-3.58,6.77,2.36-1.56-26.23-7.83-2.07Z" style="fill:#263238"></path><path d="M440,230.9l-9.15,14.29s-27.73,17.73-45.45,32.88c-12,10.21-20,17.72-18.59,22.29s31.73,82.9,31.73,82.9-14.57,5.43-18.86,6.58-8.58,1.71-8.29,3.14,12.86,4.57,16.29,4.57,18-5.71,21.44-5.71,2.29-4,.86-9.15S400,355,396.58,323.8c-.65-6-5.43-19.44-5.43-19.44L444,276.64s-13.44,56.88-12.58,65.17S449.18,415,449.18,415s-10,9.72-11.72,11.15-8,4.57-9.72,6.29,3.43,2,8.29,1.43,12.29,0,15.72-2.58a59.67,59.67,0,0,0,8.58-7.71c2-2.29,2.57-4.58,1.14-8s-3.14-9.43-3.14-9.43-1.43-32.87-1.72-44.88a101.06,101.06,0,0,0-3.71-23.44s21.72-46,24.3-56.31a63.44,63.44,0,0,0,1.42-25.73c-.93-6.32-5.43-22.87-5.43-22.87Z" style="fill:#263238"></path><path d="M431.7,434.62c-2.1,0-4.25-.24-4.7-1.16-.15-.31-.2-.8.39-1.39a36.66,36.66,0,0,1,5.73-3.78,39.61,39.61,0,0,0,4-2.54c1.55-1.28,10-9.51,11.48-10.92-1.36-5.24-16.83-64.93-17.66-73-.8-7.75,10.45-56.19,12.34-64.27l-51.53,27c.82,2.34,4.71,13.69,5.31,19.14a271,271,0,0,0,12.24,55.05c.55,1.7.95,2.93,1.18,3.76l0,.14c1.11,4,2,7.17.81,8.72a2.58,2.58,0,0,1-2.19.92c-1.64,0-6.18,1.44-10.57,2.83-4.67,1.48-9.08,2.88-10.87,2.88-2.87,0-16.39-3-16.78-5-.32-1.58,2.24-2.18,5.79-3,.92-.22,1.89-.45,2.86-.71,3.78-1,15.8-5.44,18.35-6.38-2.76-7.14-30.19-78.06-31.56-82.46-1.56-5,6.78-12.61,18.73-22.82,17-14.57,43.63-31.71,45.41-32.86l9.1-14.2a.5.5,0,0,1,.45-.23l33.15,2a.5.5,0,0,1,.46.37c0,.17,4.52,16.65,5.44,22.93a63.86,63.86,0,0,1-1.44,25.92c-2.51,10-22.58,52.7-24.25,56.23a102.48,102.48,0,0,1,3.68,23.39c.28,11.62,1.65,43.22,1.72,44.81.17.62,1.78,6.13,3.1,9.32,1.41,3.38,1.05,5.93-1.22,8.53a60.54,60.54,0,0,1-8.66,7.78c-2.61,2-7.35,2.18-11.54,2.38-1.59.07-3.1.14-4.42.29A40.35,40.35,0,0,1,431.7,434.62ZM444,276.14a.49.49,0,0,1,.3.1.48.48,0,0,1,.18.51c-.13.57-13.4,56.9-12.56,65s17.54,72.46,17.71,73.11a.51.51,0,0,1-.14.48c-.41.4-10,9.75-11.75,11.17a39.16,39.16,0,0,1-4.16,2.64,36.08,36.08,0,0,0-5.52,3.62.7.7,0,0,0-.2.27c.23.41,3.13.89,8.07.31,1.36-.16,2.88-.23,4.5-.3,4-.19,8.62-.4,11-2.18a58.32,58.32,0,0,0,8.5-7.64c2-2.33,2.34-4.43,1.06-7.49-1.42-3.41-3.15-9.42-3.16-9.48a.5.5,0,0,1,0-.12c0-.33-1.43-33-1.72-44.89A102.17,102.17,0,0,0,452.42,338a.43.43,0,0,1,0-.35c.21-.46,21.72-46.07,24.26-56.22a63.06,63.06,0,0,0,1.42-25.54c-.84-5.72-4.67-20.05-5.33-22.46l-32.49-2-9,14a.54.54,0,0,1-.15.15c-.28.18-27.91,17.88-45.4,32.84-10.89,9.31-19.8,17.38-18.43,21.76s31.42,82.09,31.72,82.87a.48.48,0,0,1,0,.39.51.51,0,0,1-.28.26c-.6.22-14.65,5.45-18.91,6.59-1,.26-2,.49-2.89.71-2.06.49-5.17,1.22-5,1.85.66,1.1,12.19,4.17,15.8,4.17,1.64,0,6.18-1.44,10.57-2.83,4.67-1.48,9.08-2.88,10.87-2.88a1.62,1.62,0,0,0,1.39-.52c.89-1.16,0-4.41-1-7.85l0-.15c-.23-.8-.64-2.09-1.17-3.71a271.76,271.76,0,0,1-12.28-55.25c-.65-5.85-5.36-19.19-5.41-19.33a.51.51,0,0,1,.24-.61l52.88-27.73A.69.69,0,0,1,444,276.14Zm-13.15-30.95h0Z" style="fill:#263238"></path><path d="M387.72,397.55c-3.43,0-16-3.14-16.29-4.57s4-2,8.29-3.14,18.86-6.58,18.86-6.58S394,371.4,388.3,356.63l13.15-4.07c3.62,15.88,7.63,26.75,8.57,30.13,1.43,5.14,2.57,9.15-.86,9.15S391.15,397.55,387.72,397.55Zm72.61,26c2-2.29,2.57-4.58,1.14-8s-3.14-9.43-3.14-9.43-.47-10.84-.93-22.34l-15.81,1.49c4,15.78,7.59,29.71,7.59,29.71s-10,9.72-11.72,11.15-8,4.57-9.72,6.29,3.43,2,8.29,1.43,12.29,0,15.72-2.58A59.67,59.67,0,0,0,460.33,423.57Z" style="fill:#fff"></path><path d="M431.7,434.62c-2.1,0-4.25-.24-4.7-1.16-.15-.31-.2-.8.39-1.39a36.66,36.66,0,0,1,5.73-3.78,39.61,39.61,0,0,0,4-2.54c1.55-1.28,10-9.51,11.49-10.92-.54-2.05-3.91-15.05-7.53-29.43a.54.54,0,0,1,.08-.41.56.56,0,0,1,.36-.21l15.82-1.49a.5.5,0,0,1,.37.12.46.46,0,0,1,.17.36c.44,11,.89,21.4.93,22.28.17.62,1.78,6.13,3.1,9.32,1.41,3.38,1.05,5.93-1.22,8.53a60.54,60.54,0,0,1-8.66,7.78c-2.61,2-7.35,2.18-11.54,2.38-1.59.07-3.1.14-4.42.29A40.35,40.35,0,0,1,431.7,434.62Zm10.52-48.89c3.87,15.36,7.41,29,7.45,29.13a.52.52,0,0,1-.14.49c-.41.4-10,9.75-11.75,11.17a39.16,39.16,0,0,1-4.16,2.64,36.08,36.08,0,0,0-5.52,3.62.7.7,0,0,0-.2.27c.23.41,3.13.89,8.07.31,1.36-.16,2.88-.23,4.5-.3,4-.19,8.62-.4,11-2.18a58.32,58.32,0,0,0,8.5-7.64c2-2.33,2.34-4.43,1.06-7.49-1.42-3.41-3.15-9.42-3.16-9.48a.5.5,0,0,1,0-.12s-.46-10.51-.91-21.81Zm-54.5,12.32c-2.87,0-16.39-3-16.78-5-.32-1.58,2.24-2.18,5.79-3,.92-.22,1.89-.45,2.86-.71,3.78-1,15.8-5.44,18.35-6.38-.91-2.35-5.08-13.12-10.1-26.16a.48.48,0,0,1,0-.39.48.48,0,0,1,.31-.26l13.14-4.08a.51.51,0,0,1,.4.05.51.51,0,0,1,.24.32c2.74,12,5.64,21,7.38,26.35.55,1.7.95,2.93,1.18,3.76l0,.14c1.11,4,2,7.17.81,8.72a2.58,2.58,0,0,1-2.19.92c-1.64,0-6.18,1.44-10.57,2.83C393.92,396.65,389.51,398.05,387.72,398.05ZM389,357c5.6,14.53,10.09,26.13,10.09,26.13a.48.48,0,0,1,0,.39.51.51,0,0,1-.28.26c-.6.22-14.65,5.45-18.91,6.59-1,.26-2,.49-2.89.71-2.06.49-5.17,1.22-5,1.85.66,1.1,12.19,4.17,15.8,4.17,1.64,0,6.18-1.44,10.57-2.83,4.67-1.48,9.08-2.88,10.87-2.88a1.62,1.62,0,0,0,1.39-.52c.89-1.16,0-4.41-1-7.85l0-.15c-.23-.8-.64-2.09-1.17-3.71-1.72-5.3-4.57-14.12-7.28-25.91Z" style="fill:#263238"></path><path d="M440.63,423.22c-1.46,1.37-2.67,2.5-3.17,2.92-1.71,1.43-8,4.57-9.72,6.29s3.43,2,8.29,1.43,12.29,0,15.72-2.58a59.67,59.67,0,0,0,8.58-7.71c2-2.29,2.57-4.58,1.14-8l-.22-.55c-5.25,4.8-11.73,10.51-13.21,10.84C446.41,426.22,443,424.51,440.63,423.22Z" style="fill:#263238"></path><path d="M431.7,434.62c-2.1,0-4.25-.24-4.7-1.16-.15-.31-.2-.8.39-1.39a36.66,36.66,0,0,1,5.73-3.78,39.61,39.61,0,0,0,4-2.54q.66-.54,3.14-2.9a.51.51,0,0,1,.59-.07c3.38,1.89,5.95,2.84,7.06,2.59.5-.12,2.77-1.38,13-10.73a.5.5,0,0,1,.81.19l.21.54c1.41,3.38,1.05,5.93-1.22,8.53a60.54,60.54,0,0,1-8.66,7.78c-2.61,2-7.35,2.18-11.54,2.38-1.59.07-3.1.14-4.42.29A40.35,40.35,0,0,1,431.7,434.62Zm9-10.79c-1.53,1.45-2.49,2.33-2.92,2.69a39.16,39.16,0,0,1-4.16,2.64,36.08,36.08,0,0,0-5.52,3.62.7.7,0,0,0-.2.27c.23.41,3.13.89,8.07.31,1.36-.16,2.88-.23,4.5-.3,4-.19,8.62-.4,11-2.18a58.32,58.32,0,0,0,8.5-7.64c2-2.3,2.33-4.38,1.11-7.37-11,10.05-12.44,10.37-12.91,10.47C446.78,426.64,444.28,425.8,440.7,423.83Z" style="fill:#263238"></path><path d="M410.34,383.85l-17.76,5.7-1.66-3.49c-4.22,1.52-9,3.2-11.2,3.78-4.29,1.14-8.58,1.71-8.29,3.14s12.86,4.57,16.29,4.57,18-5.71,21.44-5.71C412.33,391.84,411.6,388.42,410.34,383.85Z" style="fill:#263238"></path><path d="M387.72,398.05c-2.87,0-16.39-3-16.78-5-.32-1.58,2.24-2.18,5.79-3,.92-.22,1.89-.45,2.86-.71,1.75-.47,5.61-1.77,11.16-3.76a.5.5,0,0,1,.62.26l1.48,3.09,17.34-5.57a.48.48,0,0,1,.39,0,.47.47,0,0,1,.24.31c1,3.49,1.61,6.28.53,7.7a2.58,2.58,0,0,1-2.19.92c-1.64,0-6.18,1.44-10.57,2.83C393.92,396.65,389.51,398.05,387.72,398.05Zm2.94-11.37c-5.41,1.95-9.05,3.17-10.81,3.64-1,.26-2,.49-2.89.71-2.06.49-5.17,1.22-5,1.85.66,1.1,12.19,4.17,15.8,4.17,1.64,0,6.18-1.44,10.57-2.83,4.67-1.48,9.08-2.88,10.87-2.88a1.62,1.62,0,0,0,1.39-.52c.76-1,.2-3.53-.55-6.33L392.73,390a.51.51,0,0,1-.6-.27Z" style="fill:#263238"></path><polygon points="384.11 351.92 388.74 361.36 403.51 357.45 401.8 346.3 384.11 351.92" style="fill:#a8a8a8"></polygon><path d="M388.74,361.86a.51.51,0,0,1-.45-.28l-4.62-9.44a.51.51,0,0,1,0-.42.54.54,0,0,1,.31-.28l17.69-5.62a.49.49,0,0,1,.41.06.48.48,0,0,1,.23.34L404,357.37a.49.49,0,0,1-.37.56l-14.77,3.91Zm-3.92-9.64,4.19,8.55L403,357.08,401.39,347Z" style="fill:#263238"></path><polygon points="438.89 381.26 441.46 392.41 458.9 389.83 459.19 378.97 438.89 381.26" style="fill:#a8a8a8"></polygon><path d="M441.46,392.91a.49.49,0,0,1-.48-.39l-2.58-11.15a.52.52,0,0,1,.08-.4.5.5,0,0,1,.36-.21l20.29-2.28a.5.5,0,0,1,.39.12.52.52,0,0,1,.17.39l-.29,10.86a.51.51,0,0,1-.43.48l-17.43,2.57Zm-2-11.22,2.35,10.16,16.56-2.45.26-9.87Z" style="fill:#263238"></path><path d="M489.83,160.84s2.53-.91,5.25-8.51.72-13.4-4.71-17.74-18.64-5.25-24.26-.91-5.07,6.7-5.07,6.7S460,145.09,458,152.87s-1.45,12.31.36,15.21,5.43,5.25,6.7,5.25L462,181.48s-15.21-1.63-17.74-1.09-6.16,8.51-6.16,21.72a269,269,0,0,0,2,28.79s5.25,5.07,17.57,6.52,14.66,1.44,16.11.36,13.76-21.18,13.76-21.18,14.12,20.82,27.88,21.9,24.26-10.86,28.6-13.94S549,220,549,220l-2.72-8s-3.07-1.45-11.4.36-14.3,3.44-14.3,3.44a45.43,45.43,0,0,1-6.16-4.7C511,208.09,507,201,503.77,196.32s-8.51-9-14.48-10.5-14.12-2.53-14.12-2.53.72-3.81,2-8.15,1.63-5.43,1.63-5.43l7.24-2.9s3.08,3.62,8.15-.9S494.18,158.85,489.83,160.84Z" style="fill:#fff"></path><path d="M517.14,239.07c-.6,0-1.21,0-1.82-.07-12.64-1-25.28-17.92-27.82-21.49-2.36,3.85-12.1,19.63-13.48,20.67-1.64,1.23-4.1,1.19-16.47-.27s-17.63-6.44-17.85-6.65a.48.48,0,0,1-.15-.3,270.53,270.53,0,0,1-2-28.85c0-12.44,3.39-21.53,6.55-22.21,2.38-.51,15.08.78,17.52,1l2.73-7.23a14.1,14.1,0,0,1-6.44-5.37c-2.14-3.41-2.28-8.37-.43-15.59s2.9-11.7,3.06-12.39c-.06-.63.1-3.07,5.27-7.07,6-4.64,19.52-3.38,24.88.91,5.88,4.7,7.52,10.86,4.86,18.3a24.51,24.51,0,0,1-3.69,7.23c1.95-.28,3.77.23,4.55,1.42.42.65,1.09,2.46-1.9,5.13-1.92,1.71-3.8,2.51-5.59,2.39a5,5,0,0,1-3-1.27l-6.72,2.68c-.16.5-.6,1.93-1.55,5.2s-1.64,6.4-1.88,7.58c1.91.27,8.59,1.25,13.65,2.47,5.54,1.35,11.06,5.35,14.77,10.71.92,1.33,1.89,2.82,2.91,4.4,2.59,4,5.27,8.19,7.69,10.35a45.77,45.77,0,0,0,5.91,4.54c1.13-.3,6.73-1.78,14.11-3.39,8.4-1.82,11.6-.38,11.73-.32a.53.53,0,0,1,.26.29l2.71,8a.46.46,0,0,1,0,.38c-.08.16-.91,1.65-5.23,4.71-.78.55-1.8,1.43-3,2.44C536.13,231.83,527.71,239.07,517.14,239.07Zm-29.66-23a.49.49,0,0,1,.41.22C488,216.52,502,237,515.4,238c11,.87,19.91-6.78,25.22-11.35,1.2-1,2.23-1.91,3-2.5a20.9,20.9,0,0,0,4.81-4.18l-2.56-7.51c-.77-.25-4-1-10.91.46-8.21,1.79-14.21,3.42-14.27,3.44a.52.52,0,0,1-.39-.06,45.62,45.62,0,0,1-6.23-4.76c-2.52-2.26-5.24-6.48-7.87-10.56-1-1.57-2-3.06-2.89-4.37-3.57-5.17-8.88-9-14.19-10.3-5.88-1.43-14-2.52-14.07-2.53a.5.5,0,0,1-.34-.2.53.53,0,0,1-.09-.39s.75-3.87,2-8.19,1.62-5.41,1.63-5.45a.52.52,0,0,1,.29-.31l7.24-2.89a.49.49,0,0,1,.57.14,4,4,0,0,0,2.6,1.18c1.5.1,3.13-.62,4.83-2.14s2.33-2.91,1.73-3.83-3.07-1.49-5.42-.46l-.15.07a.5.5,0,0,1-.63-.28.51.51,0,0,1,.25-.65l.07,0c.31-.16,2.53-1.5,4.92-8.19,2.53-7.09,1-12.71-4.55-17.18-5-4-18.12-5.18-23.64-.9-5.17,4-4.89,6.18-4.88,6.2a.49.49,0,0,1,0,.21s-1.11,4.8-3.08,12.51c-1.75,6.84-1.65,11.69.3,14.81,1.72,2.75,5.22,5,6.28,5a.51.51,0,0,1,.41.21.56.56,0,0,1,.06.47l-3.08,8.14a.48.48,0,0,1-.52.32c-5.23-.56-15.64-1.51-17.59-1.09s-5.76,7.92-5.76,21.23a268.35,268.35,0,0,0,2,28.54c.86.75,6.19,5,17.14,6.27,11.77,1.38,14.42,1.46,15.76.46,1-.76,8.7-13,13.63-21a.49.49,0,0,1,.41-.24Z" style="fill:#263238"></path><path d="M504,133.14s-.9-2.72,2.72-3.44,5.43.36,4.7,1.45a11.68,11.68,0,0,1-2.71,2.35s4.71-3.44,11,1.09,9.23,9.77,9,20.09-6.69,2.17-6.69,2.17,3.25,8.69-1.63,12.13-7.43.37-7.43.37-3.8,6.88-7.6,5.25S498,160.48,499.24,155,504,133.14,504,133.14Z" style="fill:#263238"></path><path d="M506.61,175.35a3.63,3.63,0,0,1-1.41-.29c-4.17-1.79-7.74-14.56-6.44-20.13,1.19-5.12,4.37-20.29,4.68-21.78a3,3,0,0,1,.3-2.22,3.92,3.92,0,0,1,2.83-1.72c2.56-.52,4.58-.21,5.25.79a1.23,1.23,0,0,1,0,1.42,4.45,4.45,0,0,1-.4.51,11,11,0,0,1,8.6,2.25c6.84,4.88,9.44,10.63,9.26,20.51,0,3.3-.75,5.14-2.13,5.61s-2.89-.59-4-1.6c.68,2.89,1.28,8.1-2.41,10.69-4,2.78-6.55,1.52-7.59.73C512.23,171.56,509.6,175.35,506.61,175.35ZM508.83,130a10.76,10.76,0,0,0-2.07.23,3,3,0,0,0-2.15,1.24,2,2,0,0,0-.18,1.55.58.58,0,0,1,0,.26c0,.17-3.45,16.54-4.71,21.92s2.46,17.51,5.87,19,6.93-5,7-5a.48.48,0,0,1,.39-.25.49.49,0,0,1,.43.18c.09.11,2.33,2.66,6.75-.45s1.48-11.47,1.45-11.55a.49.49,0,0,1,.22-.61.51.51,0,0,1,.64.12c.7.88,3,3.27,4.35,2.81.89-.3,1.41-2,1.45-4.68.17-9.62-2.22-14.95-8.84-19.68-5.36-3.83-9.49-1.68-10.31-1.18l-.17.11a.49.49,0,0,1-.68-.14.49.49,0,0,1,.11-.68l.13-.09a10.6,10.6,0,0,0,2.47-2.14c.12-.18.06-.26,0-.31C510.8,130.27,510.08,130,508.83,130Z" style="fill:#263238"></path><path d="M487.84,136.4s-6.52,2.71-11,3.26-6.16-.37-6.16-.37l5.07-3.26s-9.23,3.26-13,3.63-11.22-1.27-11.58-6.88,6-7.06,6-7.06-4.34,4-.18,4.88,7.6-.54,13-4.88,12.85-4.17,16.47-2,4.89,7.43,4.89,7.43,8.15-3.08,11.4.54,4.89,11.77,4,18.65-11.95,9.59-11.95,9.59-4.53,2.54-4.89.91,2-4.89,2-4.89-3.08-6-3.26-11.77A39.87,39.87,0,0,0,487.84,136.4Z" style="fill:#263238"></path><path d="M490.7,161.88a1.73,1.73,0,0,1-.71-.13,1.1,1.1,0,0,1-.65-.8c-.35-1.58,1.31-4.19,1.9-5a32.23,32.23,0,0,1-3.18-11.71,50.17,50.17,0,0,0-.59-7.11,50.66,50.66,0,0,1-10.62,3.06c-4.63.56-6.38-.38-6.45-.42a.49.49,0,0,1-.26-.42.49.49,0,0,1,.23-.44l1.7-1.09a57,57,0,0,1-9.35,2.37c-2.93.28-7.21-.57-9.75-2.73a6.47,6.47,0,0,1-2.38-4.61c-.39-6,6.29-7.57,6.36-7.58a.5.5,0,0,1,.45.85c-.82.76-2,2.28-1.79,3.15.11.41.57.71,1.38.89,3.85.83,7.15-.42,12.61-4.79s13.06-4.43,17-2c3.1,1.86,4.53,5.77,5,7.2,1.89-.63,8.44-2.47,11.44.86,3.28,3.65,5.05,11.84,4.1,19-.91,6.93-11.23,9.74-12.26,10A11.05,11.05,0,0,1,490.7,161.88Zm-2.86-26a.44.44,0,0,1,.22,0,.49.49,0,0,1,.26.32,40,40,0,0,1,.74,7.9c.18,5.61,3.18,11.49,3.21,11.55a.51.51,0,0,1,0,.52c-.86,1.19-2.14,3.46-1.91,4.49a.12.12,0,0,0,.08.11c.58.25,2.56-.5,4.07-1.34a.29.29,0,0,1,.13-.05c.11,0,10.72-2.72,11.57-9.18.9-6.83-.79-14.84-3.86-18.25s-10.78-.44-10.85-.41a.45.45,0,0,1-.41,0,.54.54,0,0,1-.26-.33s-1.26-5.07-4.66-7.11c-3.7-2.22-10.83-2.1-15.9,2-5.74,4.59-9.26,5.89-13.46,5-1.2-.26-1.91-.8-2.13-1.6a3.37,3.37,0,0,1,.77-2.64c-1.72.83-4,2.57-3.82,5.89a5.5,5.5,0,0,0,2,3.92c2.33,2,6.31,2.75,9,2.5,3.69-.35,12.82-3.56,12.91-3.6a.5.5,0,0,1,.44.9l-4.16,2.67a16,16,0,0,0,4.92,0c4.4-.53,10.84-3.2,10.91-3.22A.41.41,0,0,1,487.84,135.9Z" style="fill:#263238"></path><path d="M491.28,131.65a.53.53,0,0,1-.27-.08.5.5,0,0,1-.15-.69c.14-.22,3.33-5.37-1.76-10.8a.48.48,0,0,1,0-.7.49.49,0,0,1,.7,0c5.64,6,1.91,12,1.87,12A.51.51,0,0,1,491.28,131.65Z" style="fill:#263238"></path><path d="M467,155.54a.57.57,0,0,1-.25-.06c-.12-.07-3.15-1.8-3.15-4.06a2.76,2.76,0,0,1,.89-2.09c1.34-1.24,3.79-1.33,4.73-1.31l1.49-3.32a.5.5,0,1,1,.91.41L470,148.73a.54.54,0,0,1-.49.3s-3-.19-4.32,1a1.76,1.76,0,0,0-.58,1.36c0,1.39,1.91,2.77,2.64,3.19a.5.5,0,0,1,.2.68A.52.52,0,0,1,467,155.54Z" style="fill:#263238"></path><path d="M466.82,146.72c-.16.88-.73,1.52-1.27,1.42s-.85-.9-.69-1.79.74-1.52,1.28-1.42S467,145.83,466.82,146.72Z" style="fill:#263238"></path><path d="M478.32,150.52c-.17.88-.74,1.52-1.28,1.42s-.84-.9-.68-1.78.73-1.52,1.27-1.43S478.48,149.63,478.32,150.52Z" style="fill:#263238"></path><path d="M466.11,159.75c-.16.89-.73,1.52-1.27,1.42s-.85-.89-.68-1.78.73-1.52,1.27-1.42S466.28,158.87,466.11,159.75Z" style="fill:#263238"></path><path d="M482.41,147.58a.55.55,0,0,1-.34-.13l-4.53-4.17a.5.5,0,0,1,0-.7.5.5,0,0,1,.71,0l4.53,4.16a.51.51,0,0,1,0,.71A.54.54,0,0,1,482.41,147.58Z" style="fill:#263238"></path><path d="M463.94,142.87a.5.5,0,0,1-.06-1l5.79-.73a.5.5,0,0,1,.56.43.5.5,0,0,1-.43.56l-5.8.73Z" style="fill:#263238"></path><path d="M465,173.33s4.89-.18,6.88-.91a23.52,23.52,0,0,1-5.25,4.17,9.76,9.76,0,0,1-3.44,1.26Z" style="fill:#263238"></path><path d="M463.22,178.35a.49.49,0,0,1-.47-.68l1.81-4.53a.52.52,0,0,1,.45-.31c.05,0,4.83-.19,6.73-.88a.5.5,0,0,1,.53.82,23.83,23.83,0,0,1-5.39,4.27C464.31,178.32,463.32,178.35,463.22,178.35Zm2.15-4.54L464,177.16a16,16,0,0,0,6.22-3.83A43.42,43.42,0,0,1,465.37,173.81Z" style="fill:#263238"></path><path d="M534.91,212.43c-8.33,1.81-14.3,3.44-14.3,3.44a45.43,45.43,0,0,1-6.16-4.7C511,208.09,507,201,503.77,196.32s-8.51-9-14.48-10.5c-3.71-.9-8.26-1.66-11.17-2.1-3.62,3.3-10.71,10-15.26,15.86-6.34,8.15-14.67,29.51-14.67,29.51s-1.81-17.2,2.17-28.06a112.06,112.06,0,0,1,9.42-19.37l-.59-.46c-4.5-.44-13.13-1.21-15-.81-2.54.54-6.16,8.51-6.16,21.72a269,269,0,0,0,2,28.79s5.25,5.07,17.57,6.52,14.66,1.44,16.11.36,13.76-21.18,13.76-21.18,14.12,20.82,27.88,21.9,24.26-10.86,28.6-13.94S549,220,549,220l-2.72-8S543.24,210.62,534.91,212.43Z" style="fill:#90CAF9"></path><path d="M517.14,239.07c-.6,0-1.21,0-1.82-.07-12.64-1-25.28-17.92-27.82-21.49-2.36,3.85-12.1,19.63-13.48,20.67-1.64,1.23-4.1,1.19-16.47-.27s-17.63-6.44-17.85-6.65a.48.48,0,0,1-.15-.3,270.53,270.53,0,0,1-2-28.85c0-12.44,3.39-21.53,6.55-22.21,1.9-.4,10.3.33,15.14.8a.46.46,0,0,1,.26.1l.59.46a.51.51,0,0,1,.11.67,111.5,111.5,0,0,0-9.37,19.27c-3.08,8.4-2.64,20.8-2.31,25.72,2.23-5.52,8.7-20.91,13.94-27.65,4.55-5.84,11.55-12.48,15.32-15.92a.5.5,0,0,1,.42-.13c3.09.48,7.54,1.23,11.21,2.11,5.54,1.35,11.06,5.35,14.77,10.71.92,1.33,1.89,2.82,2.91,4.4,2.59,4,5.27,8.19,7.69,10.35a45.77,45.77,0,0,0,5.91,4.54c1.13-.3,6.73-1.78,14.11-3.39h0c8.4-1.82,11.6-.38,11.73-.32a.53.53,0,0,1,.26.29l2.71,8a.46.46,0,0,1,0,.38c-.08.16-.91,1.65-5.23,4.71-.78.55-1.8,1.43-3,2.44C536.13,231.83,527.71,239.07,517.14,239.07Zm-29.66-23a.49.49,0,0,1,.41.22C488,216.52,502,237,515.4,238c11,.87,19.91-6.78,25.22-11.35,1.2-1,2.23-1.91,3-2.5a20.9,20.9,0,0,0,4.81-4.18l-2.56-7.51c-.77-.25-4-1-10.91.46h0c-8.21,1.79-14.21,3.42-14.27,3.44a.52.52,0,0,1-.39-.06,45.62,45.62,0,0,1-6.23-4.76c-2.52-2.26-5.24-6.48-7.87-10.56-1-1.57-2-3.06-2.89-4.37-3.57-5.17-8.88-9-14.19-10.3-3.54-.86-7.83-1.59-10.89-2.06-3.79,3.46-10.6,9.94-15,15.64-6.22,8-14.51,29.17-14.59,29.38a.51.51,0,0,1-1-.13c0-.17-1.77-17.44,2.2-28.28a114.79,114.79,0,0,1,9.23-19.09l-.12-.09c-8.06-.78-13.4-1.08-14.69-.8-2.06.44-5.76,7.92-5.76,21.23a268.35,268.35,0,0,0,2,28.54c.86.75,6.19,5,17.14,6.27,11.77,1.38,14.42,1.46,15.76.46,1-.76,8.7-13,13.63-21a.49.49,0,0,1,.41-.24Z" style="fill:#263238"></path><path d="M487.48,217.1a.51.51,0,0,1-.17,0l-9.78-3.44a.5.5,0,0,1-.3-.64.49.49,0,0,1,.64-.3l8.14,2.86-4.54-5.7a.5.5,0,0,1,.79-.62l5.61,7.06a.49.49,0,0,1,0,.6A.5.5,0,0,1,487.48,217.1Z" style="fill:#263238"></path><path d="M472.09,237a.47.47,0,0,1-.3-.1l-12.13-9.23a.5.5,0,0,1-.1-.7.49.49,0,0,1,.7-.1l10.32,7.85-5.09-9.57a.5.5,0,1,1,.88-.47l6.16,11.59a.5.5,0,0,1-.44.73Z" style="fill:#263238"></path><path d="M429.73,176.77s8-27,8.32-23-4.89,19.73-4.89,19.73,10.14-15,9.42-10.68-5.07,8.15-5.07,8.15,10-7.25,9.23-4.53-17.38,17-17.38,17Z" style="fill:#fff"></path><path d="M429.36,184a.59.59,0,0,1-.22-.05.51.51,0,0,1-.28-.48l.37-6.7a.2.2,0,0,1,0-.11c7.05-23.9,8.18-23.8,8.68-23.75.25,0,.56.19.62.85.27,2.94-2.34,11.8-3.86,16.67,6.54-9.37,7.59-9,7.95-8.81.61.24.48,1,.43,1.32a12.82,12.82,0,0,1-2.39,5.25c2.81-1.84,5.43-3.23,6.25-2.66a.9.9,0,0,1,.3,1.08c-.75,2.78-15.82,15.79-17.54,17.27A.5.5,0,0,1,429.36,184Zm.86-7.12-.29,5.47c6.6-5.71,15.79-14.15,16.33-16-1.09.1-5.12,2.61-8.46,5a.49.49,0,0,1-.68-.09.5.5,0,0,1,.06-.69s4.22-3.74,4.91-7.85v0c-1.35,1-5.22,6.19-8.51,11.07a.5.5,0,0,1-.89-.44c.05-.14,4.58-13.78,4.87-18.66C436,158,432.41,169.44,430.22,176.85Z" style="fill:#263238"></path><path d="M406.73,192.34s-8.87-47.43.55-48.52c7.23-.83,10.32,47.07,10.32,47.07Z" style="fill:#fff"></path><path d="M406.73,192.84a.51.51,0,0,1-.49-.41c-.3-1.61-7.33-39.63-1.47-47.57a3.51,3.51,0,0,1,2.45-1.54,2.39,2.39,0,0,1,1.84.63c6.28,5.24,8.92,45.21,9,46.91a.5.5,0,0,1-.43.53l-10.86,1.44Zm.73-48.53h-.13a2.55,2.55,0,0,0-1.76,1.13c-5.26,7.14.77,41.88,1.57,46.33l9.93-1.32c-.32-4.57-3-41.06-8.65-45.74A1.47,1.47,0,0,0,407.46,144.31Z" style="fill:#263238"></path><path d="M411.1,155.55a7.43,7.43,0,0,0-4.44.41c-1.76.7-4,1.8-2.84,2.45,1.8,1,7.29-.23,8.35-1.68C412.63,156.1,412,155.74,411.1,155.55Z" style="fill:#fff"></path><path d="M405.78,159.26a4.75,4.75,0,0,1-2.21-.42.93.93,0,0,1-.57-.9c0-.53.47-1.24,3.47-2.44a7.94,7.94,0,0,1,4.74-.44h0c.88.2,1.38.5,1.55,1a1,1,0,0,1-.19,1C411.65,158.29,408.28,159.26,405.78,159.26ZM404,158h0c1.61.89,6.83-.33,7.7-1.53l.06-.1h0A2.33,2.33,0,0,0,411,156h0a7.12,7.12,0,0,0-4.15.39C404.71,157.28,404.17,157.78,404,158Z" style="fill:#263238"></path><path d="M412,164.24a7.43,7.43,0,0,0-4.44.41c-1.75.7-4,1.8-2.84,2.45,1.81,1,7.29-.23,8.35-1.68C413.53,164.79,412.88,164.43,412,164.24Z" style="fill:#fff"></path><path d="M406.69,168a4.7,4.7,0,0,1-2.21-.42,1,1,0,0,1-.58-.9c0-.53.47-1.24,3.48-2.44a8,8,0,0,1,4.73-.44h0c.89.2,1.38.5,1.55,1a1,1,0,0,1-.19,1C412.55,167,409.18,168,406.69,168Zm-1.75-1.3h0c1.62.89,6.83-.33,7.71-1.53a.26.26,0,0,0,.05-.1h0a2.33,2.33,0,0,0-.83-.31,7.08,7.08,0,0,0-4.14.39C405.62,166,405.07,166.47,404.94,166.65Zm-.06-.05Z" style="fill:#263238"></path><path d="M412.91,172.93a7.43,7.43,0,0,0-4.44.41c-1.76.7-4,1.8-2.84,2.45,1.8,1,7.29-.23,8.35-1.68C414.44,173.48,413.79,173.12,412.91,172.93Z" style="fill:#fff"></path><path d="M407.59,176.64a4.75,4.75,0,0,1-2.21-.42.94.94,0,0,1-.57-.9c0-.53.47-1.24,3.47-2.45a8.1,8.1,0,0,1,4.74-.43h0c.89.2,1.38.5,1.55,1a1,1,0,0,1-.19,1C413.46,175.67,410.09,176.64,407.59,176.64Zm-1.75-1.3h0c1.61.89,6.83-.33,7.7-1.53l.06-.1h0a2.33,2.33,0,0,0-.83-.31h0a7,7,0,0,0-4.15.39C406.52,174.66,406,175.16,405.84,175.34Z" style="fill:#263238"></path><path d="M413.81,192.25s2.68-54.6,12.74-53.3c7.73,1-1.08,54.59-1.08,54.59Z" style="fill:#fff"></path><path d="M425.47,194h-.05l-11.66-1.29a.51.51,0,0,1-.45-.52c.1-1.88,2.35-46,10.51-52.85a3.52,3.52,0,0,1,2.79-.92,2.46,2.46,0,0,1,1.68,1.07c5.31,7.15-2,52.18-2.32,54.09A.5.5,0,0,1,425.47,194Zm-11.13-2.23L425.06,193c.78-4.9,7.21-46.42,2.43-52.86a1.54,1.54,0,0,0-1-.68,2.57,2.57,0,0,0-2,.7C417.06,146.33,414.61,187,414.34,191.81Z" style="fill:#263238"></path><path d="M427.58,152.89a7.64,7.64,0,0,0-4.72-.73c-2,.31-4.61.93-3.57,1.94,1.63,1.58,7.64,1.69,9.1.38C429,153.9,428.44,153.34,427.58,152.89Z" style="fill:#fff"></path><path d="M424.43,155.89c-2.2,0-4.53-.5-5.49-1.43a1,1,0,0,1-.34-1.08c.16-.52.79-1.19,4.18-1.71a8.11,8.11,0,0,1,5,.77h0c.84.44,1.28.9,1.35,1.41a1.14,1.14,0,0,1-.43,1C428,155.55,426.23,155.89,424.43,155.89Zm-4.87-2.23.08.08c1.46,1.42,7.21,1.46,8.42.36.08-.07.1-.12.1-.13s0-.24-.81-.64a7,7,0,0,0-4.41-.67C420.19,153.08,419.65,153.56,419.56,153.66Z" style="fill:#263238"></path><path d="M426.34,162.7a7.64,7.64,0,0,0-4.72-.73c-2,.31-4.61.93-3.57,1.94,1.63,1.59,7.64,1.69,9.11.38C427.79,163.71,427.21,163.15,426.34,162.7Z" style="fill:#fff"></path><path d="M423.19,165.7c-2.2,0-4.53-.5-5.49-1.43a1,1,0,0,1-.34-1.08c.16-.52.79-1.18,4.19-1.71a8.09,8.09,0,0,1,5,.77c.84.44,1.28.9,1.35,1.41a1.14,1.14,0,0,1-.43,1C426.71,165.36,425,165.7,423.19,165.7Zm-4.87-2.22.08.08c1.46,1.41,7.21,1.45,8.42.36a1,1,0,0,0,.11-.13s-.05-.25-.82-.65h0a7.1,7.1,0,0,0-4.41-.67C419,162.89,418.41,163.37,418.32,163.48Z" style="fill:#263238"></path><path d="M425.1,172.51a7.62,7.62,0,0,0-4.72-.72c-2,.31-4.61.92-3.57,1.94,1.63,1.58,7.65,1.68,9.11.37C426.56,173.52,426,173,425.1,172.51Z" style="fill:#fff"></path><path d="M422,175.51c-2.2,0-4.53-.49-5.48-1.43a1,1,0,0,1-.35-1.08c.16-.52.79-1.18,4.19-1.71a8,8,0,0,1,5,.78c.84.44,1.28.9,1.35,1.4a1.14,1.14,0,0,1-.43,1C425.47,175.17,423.76,175.51,422,175.51Zm-4.86-2.22.07.08c1.46,1.41,7.21,1.45,8.42.36a.36.36,0,0,0,.11-.13s-.05-.24-.82-.65h0a7.17,7.17,0,0,0-4.41-.67C417.71,172.71,417.17,173.18,417.09,173.29Z" style="fill:#263238"></path><path d="M447.75,234.62s-5.43,6.28-5.43,14.57a79.63,79.63,0,0,0,2.57,17.73s2.86-5.15,4.29-14.87A38.77,38.77,0,0,0,447.75,234.62Z" style="fill:#90CAF9"></path><path d="M444.89,267.42h-.06a.48.48,0,0,1-.42-.36c0-.1-2.59-9.59-2.59-17.86s5.33-14.64,5.55-14.9a.53.53,0,0,1,.47-.17.54.54,0,0,1,.38.32,38.91,38.91,0,0,1,1.46,17.68c-1.43,9.7-4.23,14.83-4.35,15A.51.51,0,0,1,444.89,267.42Zm2.68-31.75c-1.37,1.86-4.75,7.11-4.75,13.52A76.56,76.56,0,0,0,445,265.45,53.19,53.19,0,0,0,448.69,252,39.72,39.72,0,0,0,447.57,235.67Z" style="fill:#263238"></path><path d="M447.75,234.62s8,5.43,8,15.15-.29,12.29-.29,12.29-5.75-11-6.74-15.23S447.75,234.62,447.75,234.62Z" style="fill:#90CAF9"></path><path d="M455.47,262.56a.49.49,0,0,1-.44-.27c-.24-.45-5.8-11.12-6.78-15.35s-1-12-1-12.32a.5.5,0,0,1,.27-.45.52.52,0,0,1,.51,0c.34.23,8.23,5.7,8.23,15.57,0,9.63-.28,12.24-.29,12.34a.51.51,0,0,1-.41.44Zm-7.21-26.91a65.47,65.47,0,0,0,1,11.07c.73,3.14,4.24,10.28,5.86,13.49.08-1.75.18-5,.18-10.44C455.26,242.24,450.25,237.31,448.26,235.65Z" style="fill:#263238"></path><polygon points="401.12 189.44 406.91 248.1 448.73 246.83 437.69 179.85 401.12 189.44" style="fill:#fff"></polygon><path d="M406.91,248.6a.5.5,0,0,1-.49-.45l-5.8-58.66A.51.51,0,0,1,401,189l36.57-9.6a.51.51,0,0,1,.4.07.47.47,0,0,1,.22.33l11.05,67a.52.52,0,0,1-.11.4.49.49,0,0,1-.37.18l-41.82,1.27Zm-5.25-58.78,5.71,57.76,40.78-1.23-10.86-65.88Z" style="fill:#263238"></path><polygon points="437.69 179.85 449.64 181.29 463.04 237.42 448.73 246.83 437.69 179.85" style="fill:#fff"></polygon><path d="M448.73,247.33a.51.51,0,0,1-.2,0,.52.52,0,0,1-.29-.38l-11-67a.48.48,0,0,1,.13-.43.5.5,0,0,1,.42-.15l11.95,1.45a.5.5,0,0,1,.43.38l13.39,56.12a.48.48,0,0,1-.21.53L449,247.25A.54.54,0,0,1,448.73,247.33Zm-10.44-66.91L449.1,246l13.37-8.8-13.24-55.44Z" style="fill:#263238"></path><path d="M448.92,167.35s-3.08-19-2.36-19.91,9.05-7.6,9.6-6.34-1.09,2-1.81,2.72-4.89,4.71-4.89,4.71l.18,1.26s7.6-7.06,8.33-6.51.9,1.08-.36,2.89-7.25,7.61-7.25,7.61l.18,2.17s6.52-8.51,7.25-6.88-3.81,7.06-4.35,7.6a18.64,18.64,0,0,0-1.63,2.54s7.24-7.61,6.88-5.07-5.79,8.51-5.79,8.51a7.84,7.84,0,0,1,1.81,6.88,6.12,6.12,0,0,1-4.53,5.25L435.7,184l-2.9-8.87Z" style="fill:#fff"></path><path d="M435.7,184.51a.51.51,0,0,1-.17,0,.5.5,0,0,1-.31-.31l-2.89-8.88a.49.49,0,0,1,.26-.6l15.77-7.62c-1.4-8.7-2.89-19.06-2.19-19.94.49-.61,8-6.93,9.83-6.68a.79.79,0,0,1,.62.46c.56,1.32-.58,2.2-1.33,2.78a5.09,5.09,0,0,0-.59.48c-.64.64-3.88,3.75-4.71,4.54v.07c7.26-6.67,7.94-6.15,8.27-5.9,1.23.92.84,2-.25,3.58a99.53,99.53,0,0,1-7.14,7.51l.06.66c2-2.5,5.28-6.42,6.64-6.26a.78.78,0,0,1,.66.5c.59,1.31-1.22,4.09-2.7,6,1.63-1.39,2.72-2,3.24-1.71.19.09.5.35.41,1-.34,2.32-4.44,7.11-5.62,8.43a8.61,8.61,0,0,1,1.63,7,6.66,6.66,0,0,1-4.82,5.63L436,184.43A.53.53,0,0,1,435.7,184.51Zm-2.29-9.11,2.56,7.84,13.94-8.88a.45.45,0,0,1,.18-.07,5.58,5.58,0,0,0,4.12-4.84,7.39,7.39,0,0,0-1.65-6.44.49.49,0,0,1,0-.7c1.45-1.59,5.22-6.09,5.64-8.11-1,.47-3.76,3-6,5.35a.5.5,0,0,1-.8-.58,17.76,17.76,0,0,1,1.72-2.65c1-1,4.52-5.64,4.27-6.94-.94.3-4,3.71-6.42,6.87a.48.48,0,0,1-.54.18.49.49,0,0,1-.35-.44l-.18-2.17a.46.46,0,0,1,.15-.4c.05-.06,6-5.78,7.18-7.53,1.05-1.52.92-1.85.59-2.12-.91.31-4.62,3.43-7.81,6.39a.5.5,0,0,1-.51.11.54.54,0,0,1-.33-.41L449,148.6a.52.52,0,0,1,.15-.43s4.17-4,4.88-4.7a6.81,6.81,0,0,1,.68-.57c.82-.63,1.18-1,1.08-1.45-1.41.19-8,5.26-8.8,6.3-.29.9,1,10.75,2.46,19.52a.5.5,0,0,1-.28.53Z" style="fill:#263238"></path><path d="M432.8,175.14s-10.5-2-19.55.18-24.8,12-28.42,17-5.61,11.77,5.43,14.48,19.19-2.9,29-8.15S435.16,187.81,435.7,184Z" style="fill:#90CAF9"></path><path d="M395.92,208a24.28,24.28,0,0,1-5.78-.71c-4.53-1.12-7.32-3-8.29-5.63s-.11-5.88,2.57-9.63c3.6-5,19.34-15,28.71-17.22,9.06-2.17,19.66-.2,19.77-.18a.49.49,0,0,1,.38.33l2.89,8.87a.37.37,0,0,1,0,.23c-.57,4-7,9.8-16.73,15l-3.24,1.78C409.6,204.54,403.29,208,395.92,208Zm26.91-33.21a40.77,40.77,0,0,0-9.46,1c-9,2.16-24.71,12-28.14,16.82-1.7,2.38-3.51,5.83-2.44,8.7.85,2.29,3.4,4,7.59,5,9.61,2.36,16.9-1.67,25.35-6.33l3.26-1.78c9.23-4.95,15.56-10.5,16.2-14.18l-2.77-8.47A60.84,60.84,0,0,0,422.83,174.81Z" style="fill:#263238"></path><path d="M546.31,212.07s15.21-3.44,18.47-5.25,8.15,0,9.78.73,6.15,4.88,6.69,5.79,1.63,9.23.91,9.77-2.35-1.44-2.35-1.44.72,3.07-.55,2.71-4-5.61-4-5.61,2.17,5.61.91,6.34-3.81-6.16-3.81-6.16.55,5.25.18,5.79-2.17.73-2.35-.54-.18-4.71-.18-4.71-3.08-1.81-4.34-2.71a22.16,22.16,0,0,1-2.36-2L549,220Z" style="fill:#fff"></path><path d="M576,225.66a1.07,1.07,0,0,1-.35-.06c-.82-.3-1.75-1.92-2.5-3.51A7.47,7.47,0,0,1,573,225a2,2,0,0,1-2,.58,1.54,1.54,0,0,1-1.26-1.33c-.16-1.08-.18-3.63-.19-4.49-.76-.45-3.06-1.83-4.14-2.59a21.44,21.44,0,0,1-2.18-1.83l-14,5.15a.53.53,0,0,1-.39,0,.48.48,0,0,1-.25-.29l-2.72-8a.51.51,0,0,1,0-.4.5.5,0,0,1,.32-.25c.16,0,15.18-3.44,18.34-5.2,3.56-2,8.72,0,10.22.71,1.67.74,6.3,4.95,6.92,6,.46.76,1.94,9.56.78,10.43-.58.44-1.32.07-2-.42a2.07,2.07,0,0,1-.41,1.57.94.94,0,0,1-1,.2c-.63-.17-1.43-1.14-2.19-2.26.24,1.34.2,2.53-.51,2.94A.88.88,0,0,1,576,225.66Zm-3.61-7.21a.5.5,0,0,1,.47.33c1.12,3,2.59,5.78,3.15,5.88.35-.22,0-2.77-1.19-5.71a.51.51,0,0,1,.27-.64.5.5,0,0,1,.64.23c1.26,2.43,3,5.17,3.68,5.36a3.82,3.82,0,0,0-.08-2.12.5.5,0,0,1,.27-.56.49.49,0,0,1,.6.13,4.44,4.44,0,0,0,1.63,1.36c.37-1.16-.51-8.31-1-9.11s-4.88-4.89-6.48-5.6c-1-.44-6.09-2.54-9.33-.74-3,1.65-15.27,4.53-18,5.18l2.37,6.95,13.82-5.07a.52.52,0,0,1,.53.11,20.61,20.61,0,0,0,2.29,1.94c1.23.88,4.27,2.68,4.3,2.69a.5.5,0,0,1,.25.43s0,3.42.18,4.64a.54.54,0,0,0,.46.49,1.19,1.19,0,0,0,1-.15,32.31,32.31,0,0,0-.26-5.47.5.5,0,0,1,.38-.54Z" style="fill:#263238"></path><path d="M592.83,241c-1.38-4-4.5-6.59-7.2-6.13L573.3,195.69a1.09,1.09,0,0,0-2.09.64l12.57,39.47c-1.82,1.65-2.36,5.18-1.13,8.74,1.48,4.28,5,7,7.77,6S594.31,245.29,592.83,241Z" style="fill:#263238"></path><path d="M589.21,251.22a5.81,5.81,0,0,1-3.48-1.32,11.15,11.15,0,0,1-3.55-5.2c-1.23-3.55-.81-7.13,1-9l-12.47-39.17a1.58,1.58,0,0,1,.86-1.91,1.62,1.62,0,0,1,1.31,0,1.58,1.58,0,0,1,.86,1L586,234.34c2.84-.18,5.93,2.53,7.31,6.51h0c1.57,4.53.36,9.08-2.71,10.14A4.08,4.08,0,0,1,589.21,251.22Zm-17-55.8a.54.54,0,0,0-.25.06.59.59,0,0,0-.32.7l12.57,39.46a.52.52,0,0,1-.14.53c-1.72,1.56-2.13,4.93-1,8.2a10.19,10.19,0,0,0,3.22,4.73,4.2,4.2,0,0,0,3.92,1c2.55-.88,3.49-4.86,2.1-8.88h0c-1.27-3.67-4.19-6.22-6.64-5.8a.49.49,0,0,1-.56-.34l-12.34-39.19a.59.59,0,0,0-.32-.37A.69.69,0,0,0,572.26,195.42Z" style="fill:#263238"></path><path d="M566.05,206.82s6.33-2.53,7.24-2.35a54.49,54.49,0,0,1,5.43,2.53l2.53,6.34a1.93,1.93,0,0,1-2.17.54c-1.27-.54-2.17-3.44-2.17-3.44l-2.53-.9a6.12,6.12,0,0,1-6,2" style="fill:#fff"></path><path d="M579.79,214.53a2.22,2.22,0,0,1-.91-.19c-1.25-.53-2.1-2.74-2.37-3.51l-2-.71a6.61,6.61,0,0,1-6.22,1.9.5.5,0,0,1-.4-.58.49.49,0,0,1,.58-.4,5.57,5.57,0,0,0,5.48-1.8.49.49,0,0,1,.57-.17l2.54.9a.52.52,0,0,1,.31.32c.32,1,1.12,2.8,1.89,3.13a1.33,1.33,0,0,0,1.38-.21l-2.34-5.85a47.21,47.21,0,0,0-5.13-2.4c-.57-.05-4,1.13-7,2.33a.51.51,0,0,1-.65-.28.5.5,0,0,1,.28-.65c1.95-.78,6.58-2.57,7.53-2.38a48.76,48.76,0,0,1,5.56,2.58.45.45,0,0,1,.23.26l2.54,6.33a.5.5,0,0,1-.08.51A2.54,2.54,0,0,1,579.79,214.53Z" style="fill:#263238"></path></g><g id="freepik--Kitchen--inject-17"><path d="M633.89,396.43h-6.32V247.61l4.21-5a1.2,1.2,0,0,1,2.11.77Z" style="fill:#fff"></path><path d="M633.89,396.93h-6.32a.5.5,0,0,1-.5-.5V247.61a.47.47,0,0,1,.12-.32l4.2-5a1.7,1.7,0,0,1,3,1.09V396.43A.5.5,0,0,1,633.89,396.93Zm-5.82-1h5.32V243.37a.7.7,0,0,0-1.23-.45l-4.09,4.87Z" style="fill:#263238"></path><rect x="521.21" y="394.43" width="6.35" height="3.81" style="fill:#263238"></rect><path d="M527.56,398.73h-6.35a.5.5,0,0,1-.5-.5v-3.8a.5.5,0,0,1,.5-.5h6.35a.5.5,0,0,1,.5.5v3.8A.5.5,0,0,1,527.56,398.73Zm-5.85-1h5.35v-2.8h-5.35Z" style="fill:#263238"></path><rect x="521.21" y="297.16" width="6.35" height="3.81" style="fill:#263238"></rect><path d="M527.56,301.47h-6.35a.5.5,0,0,1-.5-.5v-3.8a.5.5,0,0,1,.5-.5h6.35a.5.5,0,0,1,.5.5V301A.5.5,0,0,1,527.56,301.47Zm-5.85-1h5.35v-2.8h-5.35Z" style="fill:#263238"></path><rect x="535.94" y="267.66" width="36.97" height="160.26" style="fill:#263238"></rect><path d="M572.92,428.42h-37a.5.5,0,0,1-.5-.5V267.66a.5.5,0,0,1,.5-.5h37a.5.5,0,0,1,.5.5V427.92A.5.5,0,0,1,572.92,428.42Zm-36.48-1h36V268.16h-36Z" style="fill:#263238"></path><rect x="580.98" y="267.66" width="36.97" height="160.26" style="fill:#263238"></rect><path d="M618,428.42H581a.5.5,0,0,1-.5-.5V267.66a.5.5,0,0,1,.5-.5h37a.5.5,0,0,1,.5.5V427.92A.5.5,0,0,1,618,428.42Zm-36.48-1h36V268.16h-36Z" style="fill:#263238"></path><rect x="527.19" y="271.58" width="106.7" height="156.34" style="fill:#fff"></rect><path d="M633.89,428.42H527.19a.5.5,0,0,1-.5-.5V271.58a.5.5,0,0,1,.5-.5h106.7a.5.5,0,0,1,.5.5V427.92A.5.5,0,0,1,633.89,428.42Zm-106.2-1h105.7V272.08H527.69Z" style="fill:#263238"></path><path d="M633.72,281H527.54a.5.5,0,0,1-.5-.5.51.51,0,0,1,.5-.5H633.72a.51.51,0,0,1,.5.5A.5.5,0,0,1,633.72,281Z" style="fill:#263238"></path><rect x="530.58" y="428.06" width="14.28" height="5.81" style="fill:#fff"></rect><path d="M544.86,434.37H530.58a.5.5,0,0,1-.5-.5v-5.81a.5.5,0,0,1,.5-.5h14.28a.5.5,0,0,1,.5.5v5.81A.51.51,0,0,1,544.86,434.37Zm-13.78-1h13.28v-4.81H531.08Z" style="fill:#263238"></path><rect x="616.41" y="428.06" width="14.28" height="5.81" style="fill:#fff"></rect><path d="M630.69,434.37H616.41a.5.5,0,0,1-.5-.5v-5.81a.5.5,0,0,1,.5-.5h14.28a.5.5,0,0,1,.5.5v5.81A.51.51,0,0,1,630.69,434.37Zm-13.78-1h13.28v-4.81H616.91Z" style="fill:#263238"></path><path d="M576.5,233h45.94a0,0,0,0,1,0,0v26.92a7.9,7.9,0,0,1-7.9,7.9H584.4a7.9,7.9,0,0,1-7.9-7.9V233A0,0,0,0,1,576.5,233Z" style="fill:#a8a8a8"></path><path d="M614.54,268.28H584.4a8.41,8.41,0,0,1-8.4-8.41V233a.5.5,0,0,1,.5-.5h45.94a.5.5,0,0,1,.5.5v26.92A8.41,8.41,0,0,1,614.54,268.28ZM577,233.45v26.42a7.41,7.41,0,0,0,7.4,7.41h30.14a7.41,7.41,0,0,0,7.4-7.41V233.45Z" style="fill:#263238"></path><path d="M589.24,243a1.29,1.29,0,0,0-.14.56c0,1.94,4.72,3.52,10.56,3.52s10.55-1.58,10.55-3.52a1.29,1.29,0,0,0-.14-.56Z" style="fill:#263238"></path><path d="M599.66,247.53c-5.36,0-11.06-1.41-11.06-4a1.75,1.75,0,0,1,.19-.77.49.49,0,0,1,.45-.29h20.83a.49.49,0,0,1,.45.29,1.75,1.75,0,0,1,.19.77C610.71,246.12,605,247.53,599.66,247.53Zm-10.06-4.08v.06c0,1.43,4.3,3,10.06,3s10.05-1.59,10.05-3v-.06Z" style="fill:#263238"></path><path d="M588.49,229.93a.5.5,0,0,1-.5-.5,4.84,4.84,0,0,1,1.15-3.19,4,4,0,0,0,0-5.21,5,5,0,0,1,0-6.38,4,4,0,0,0,0-5.21,5,5,0,0,1,0-6.37,3.89,3.89,0,0,0,1-2.61.51.51,0,0,1,.5-.5.5.5,0,0,1,.5.5,4.89,4.89,0,0,1-1.14,3.19,4,4,0,0,0,0,5.21,5,5,0,0,1,0,6.37,4,4,0,0,0,0,5.21,4.89,4.89,0,0,1,1.14,3.19,4.94,4.94,0,0,1-1.14,3.2,3.84,3.84,0,0,0-1,2.6A.5.5,0,0,1,588.49,229.93Z" style="fill:#263238"></path><path d="M597.85,229.93a.5.5,0,0,1-.5-.5,4.89,4.89,0,0,1,1.14-3.19,4,4,0,0,0,0-5.21,5,5,0,0,1,0-6.38,4,4,0,0,0,0-5.21,5,5,0,0,1,0-6.37,3.89,3.89,0,0,0,1-2.61.5.5,0,0,1,.5-.5.51.51,0,0,1,.5.5,4.84,4.84,0,0,1-1.15,3.19,4,4,0,0,0,0,5.21,5,5,0,0,1,0,6.37,4,4,0,0,0,0,5.21,4.84,4.84,0,0,1,1.15,3.19,4.89,4.89,0,0,1-1.15,3.2,3.84,3.84,0,0,0-.95,2.6A.5.5,0,0,1,597.85,229.93Z" style="fill:#263238"></path><path d="M607.2,229.93a.5.5,0,0,1-.5-.5,4.89,4.89,0,0,1,1.14-3.19,4,4,0,0,0,0-5.21,5,5,0,0,1,0-6.38,4,4,0,0,0,0-5.21,5,5,0,0,1,0-6.37,3.84,3.84,0,0,0,1-2.61.5.5,0,0,1,1,0,4.84,4.84,0,0,1-1.15,3.19,4,4,0,0,0,0,5.21,5,5,0,0,1,0,6.37,4,4,0,0,0,0,5.21,4.84,4.84,0,0,1,1.15,3.19,4.89,4.89,0,0,1-1.15,3.2,3.84,3.84,0,0,0-.95,2.6A.5.5,0,0,1,607.2,229.93Z" style="fill:#263238"></path></g><g id="freepik--speech-bubble-2--inject-17"><path d="M527.85,59.07H476.09a4,4,0,0,0-4,4v30a4,4,0,0,0,4,4h19.42l6.84,18.38,5.79-18.38h19.71a4,4,0,0,0,4-4v-30A4,4,0,0,0,527.85,59.07Z" style="fill:#263238"></path><path d="M502.35,116a.49.49,0,0,1-.46-.33l-6.73-18H476.09a4.5,4.5,0,0,1-4.49-4.49v-30a4.5,4.5,0,0,1,4.49-4.49h51.76a4.5,4.5,0,0,1,4.49,4.49v30a4.5,4.5,0,0,1-4.49,4.49H508.51l-5.68,18a.51.51,0,0,1-.46.35Zm-26.26-56.4a3.5,3.5,0,0,0-3.49,3.49v30a3.5,3.5,0,0,0,3.49,3.49h19.42a.51.51,0,0,1,.47.32l6.33,17,5.36-17a.48.48,0,0,1,.47-.35h19.71a3.49,3.49,0,0,0,3.49-3.49v-30a3.49,3.49,0,0,0-3.49-3.49Z" style="fill:#263238"></path><path d="M526.07,57.81H474.31a4,4,0,0,0-4,4v30a4,4,0,0,0,4,4h19.41l6.85,18.38,5.79-18.38h19.71a4,4,0,0,0,4-4v-30A4,4,0,0,0,526.07,57.81Z" style="fill:#fff"></path><path d="M500.57,114.71a.51.51,0,0,1-.47-.33l-6.72-18H474.31a4.5,4.5,0,0,1-4.49-4.49v-30a4.5,4.5,0,0,1,4.49-4.49h51.76a4.5,4.5,0,0,1,4.49,4.49v30a4.5,4.5,0,0,1-4.49,4.49H506.73l-5.68,18a.52.52,0,0,1-.47.35Zm-26.26-56.4a3.49,3.49,0,0,0-3.49,3.49v30a3.49,3.49,0,0,0,3.49,3.49h19.41a.5.5,0,0,1,.47.32l6.34,17,5.35-17a.5.5,0,0,1,.48-.35h19.71a3.5,3.5,0,0,0,3.49-3.49v-30a3.5,3.5,0,0,0-3.49-3.49Z" style="fill:#263238"></path><rect x="476.09" y="62.6" width="7.12" height="7.12" style="fill:#263238"></rect><path d="M483.22,70.22h-7.13a.5.5,0,0,1-.5-.5V62.6a.5.5,0,0,1,.5-.5h7.13a.5.5,0,0,1,.5.5v7.12A.5.5,0,0,1,483.22,70.22Zm-6.63-1h6.13V63.1h-6.13Z" style="fill:#263238"></path><path d="M524.16,67.1H487.67a.5.5,0,0,1-.5-.5.5.5,0,0,1,.5-.5h36.49a.5.5,0,0,1,.5.5A.5.5,0,0,1,524.16,67.1Z" style="fill:#263238"></path><rect x="476.09" y="73.56" width="7.12" height="7.12" style="fill:#263238"></rect><path d="M483.22,81.18h-7.13a.51.51,0,0,1-.5-.5V73.56a.5.5,0,0,1,.5-.5h7.13a.5.5,0,0,1,.5.5v7.12A.51.51,0,0,1,483.22,81.18Zm-6.63-1h6.13V74.06h-6.13Z" style="fill:#263238"></path><path d="M524.16,78.06H487.67a.5.5,0,0,1-.5-.5.5.5,0,0,1,.5-.5h36.49a.5.5,0,0,1,.5.5A.5.5,0,0,1,524.16,78.06Z" style="fill:#263238"></path><rect x="476.09" y="84.51" width="7.12" height="7.12" style="fill:#263238"></rect><path d="M483.22,92.13h-7.13a.5.5,0,0,1-.5-.5V84.51a.51.51,0,0,1,.5-.5h7.13a.51.51,0,0,1,.5.5v7.12A.5.5,0,0,1,483.22,92.13Zm-6.63-1h6.13V85h-6.13Z" style="fill:#263238"></path><path d="M524.16,89H487.67a.5.5,0,0,1-.5-.5.5.5,0,0,1,.5-.5h36.49a.5.5,0,0,1,.5.5A.5.5,0,0,1,524.16,89Z" style="fill:#263238"></path><path d="M479.19,67.94h-.07a.57.57,0,0,1-.37-.25L477,64.61a.5.5,0,0,1,.19-.68.49.49,0,0,1,.68.19l1.41,2.5L486,60a.5.5,0,0,1,.71.71l-7.12,7.11A.47.47,0,0,1,479.19,67.94Z" style="fill:#90CAF9"></path><path d="M479.19,79.48h-.09a.47.47,0,0,1-.36-.28L477,75.54a.5.5,0,0,1,.23-.67.51.51,0,0,1,.67.24l1.43,3,6.42-6.43a.5.5,0,0,1,.71.71l-6.93,6.92A.47.47,0,0,1,479.19,79.48Z" style="fill:#90CAF9"></path><path d="M479.19,90h-.09a.51.51,0,0,1-.36-.28L477,86.07a.49.49,0,0,1,.23-.66.5.5,0,0,1,.67.24l1.43,3,6.42-6.42a.5.5,0,0,1,.71,0,.5.5,0,0,1,0,.7l-6.93,6.93A.5.5,0,0,1,479.19,90Z" style="fill:#90CAF9"></path></g><g id="freepik--character-1--inject-17"><path d="M224.34,210.88,253.8,194s-1.83-5.4-1.24-6.06.47-1.18,1.52-.49a5.11,5.11,0,0,1,1.57,2.38s6.1-5.4,6.91-4.12-1,2.91-1,2.91l-1.38,1.19s4.29-2.87,5.4-1.83-1.06,2.74-1.06,2.74l-2.18,1.71s4.15-1.75,4.33-.89a3.07,3.07,0,0,1-.61,2.29,21.86,21.86,0,0,1-2.24,2.27s3-.43,2.22,1.16-3.21,1.92-3.21,1.92a25.08,25.08,0,0,1-3.7,2.21,24,24,0,0,1-2.73.74l-16.43,16.44a14.77,14.77,0,0,1-9.19,6.89c-6.81,1.94-10.47-2.72-11.09-7.46S224.34,210.88,224.34,210.88Z" style="fill:#fff"></path><path d="M227.74,226.38a8.08,8.08,0,0,1-4.51-1.3,9.78,9.78,0,0,1-4.06-7.05c-.63-4.87,4.51-7.4,4.94-7.6l29.08-16.69c-1.17-3.53-1.51-5.6-1-6.16a3.29,3.29,0,0,0,.28-.38c.44-.65.87-.87,1.89-.2a4.72,4.72,0,0,1,1.5,2c1.63-1.4,5-4.18,6.47-4a.93.93,0,0,1,.66.42,2.18,2.18,0,0,1-.12,2.31c1.19-.49,2.39-.73,3-.14a1.46,1.46,0,0,1,.48,1.13A3.8,3.8,0,0,1,265,191a2.86,2.86,0,0,1,1.78,0,.72.72,0,0,1,.39.51,3.51,3.51,0,0,1-.68,2.67,12.51,12.51,0,0,1-1.35,1.45,1.89,1.89,0,0,1,1.33.6,1.21,1.21,0,0,1,0,1.32c-.76,1.61-2.92,2.08-3.47,2.18a23,23,0,0,1-3.72,2.2,27.32,27.32,0,0,1-2.65.73l-16.27,16.28a15.26,15.26,0,0,1-9.46,7.07A11.57,11.57,0,0,1,227.74,226.38Zm25.66-38.77-.11.15a5.43,5.43,0,0,1-.36.48c-.16.44.56,3.25,1.34,5.57a.5.5,0,0,1-.22.59l-29.46,16.91-.05,0s-4.94,2.26-4.38,6.57a8.82,8.82,0,0,0,3.62,6.35,8,8,0,0,0,6.84.7,14.4,14.4,0,0,0,8.87-6.63.41.41,0,0,1,.1-.13L256,201.74a.5.5,0,0,1,.26-.13,26.32,26.32,0,0,0,2.66-.72,25.39,25.39,0,0,0,3.58-2.14.47.47,0,0,1,.22-.09s2.2-.31,2.83-1.64c.08-.17.08-.27.06-.29a2.72,2.72,0,0,0-1.76-.17.5.5,0,0,1-.53-.28.52.52,0,0,1,.12-.59,19.76,19.76,0,0,0,2.16-2.16,2.76,2.76,0,0,0,.57-1.76,12.71,12.71,0,0,0-3.67,1.09.5.5,0,0,1-.5-.85l2.17-1.71c.45-.36,1.17-1.11,1.19-1.63a.44.44,0,0,0-.16-.35c-.49-.46-2.91.62-4.78,1.87a.5.5,0,0,1-.6-.79l1.38-1.19s1.48-1.38.92-2.27c-.54-.14-3.43,1.83-6.15,4.23a.48.48,0,0,1-.47.11.49.49,0,0,1-.34-.33,4.54,4.54,0,0,0-1.37-2.12A2.22,2.22,0,0,0,253.4,187.61Zm-29.06,23.27h0Z" style="fill:#263238"></path><path d="M249.88,208.59l-5.72-9.09-19.82,11.38s-5.29,2.34-4.68,7.09,4.28,9.4,11.09,7.46a14.77,14.77,0,0,0,9.19-6.89Z" style="fill:#90CAF9"></path><path d="M227.74,226.38a8.08,8.08,0,0,1-4.51-1.3,9.78,9.78,0,0,1-4.06-7.05c-.66-5.05,4.91-7.59,5-7.61l19.78-11.36a.5.5,0,0,1,.67.17l5.72,9.09a.51.51,0,0,1-.07.62l-9.89,9.9a15.26,15.26,0,0,1-9.46,7.07A11.57,11.57,0,0,1,227.74,226.38ZM244,200.17l-19.41,11.14c-.1,0-5,2.28-4.43,6.59a8.82,8.82,0,0,0,3.62,6.35,8,8,0,0,0,6.84.7,14.4,14.4,0,0,0,8.87-6.63.41.41,0,0,1,.1-.13l9.66-9.67Z" style="fill:#263238"></path><path d="M256.72,196.6a.51.51,0,0,1-.49-.41.5.5,0,0,1,.41-.58,1.07,1.07,0,0,0,.84-.58,2.78,2.78,0,0,0-.3-2.2c-.51-.85-1.92-2.71-1.93-2.73a.5.5,0,1,1,.8-.6c.06.08,1.45,1.92,2,2.81a3.76,3.76,0,0,1,.35,3.13,2.05,2.05,0,0,1-1.58,1.16Z" style="fill:#263238"></path><path d="M194.32,286.71l-23.09,144.8a2,2,0,0,0,2,2.36h0a2,2,0,0,0,1.93-1.56l25.56-145.6Z" style="fill:#a8a8a8"></path><path d="M173.18,434.37a2.46,2.46,0,0,1-1.92-.91,2.48,2.48,0,0,1-.52-2l23.08-144.78a.51.51,0,0,1,.5-.42h6.35a.5.5,0,0,1,.5.59L175.6,432.39A2.5,2.5,0,0,1,173.18,434.37Zm21.56-147.16-23,144.38a1.48,1.48,0,0,0,2.89.61l25.46-145Z" style="fill:#263238"></path><path d="M258.36,286.71l23.09,144.8a2,2,0,0,1-1.95,2.36h0a2,2,0,0,1-1.93-1.56L252,286.71Z" style="fill:#a8a8a8"></path><path d="M279.5,434.37a2.49,2.49,0,0,1-2.42-2L251.51,286.8a.5.5,0,0,1,.5-.59h6.35a.51.51,0,0,1,.5.42l23.08,144.8a2.48,2.48,0,0,1-2.44,2.94ZM252.6,287.21l25.46,145a1.48,1.48,0,0,0,1.44,1.15,1.5,1.5,0,0,0,1.15-.54,1.47,1.47,0,0,0,.3-1.23l-23-144.39Z" style="fill:#263238"></path><path d="M192,248.8s3.3-4.24-2.35-16.48c-3.32-7.19-3.54-11.77,1.64-12s10.37,16,10.6,29.2Z" style="fill:#263238"></path><path d="M201.85,250h0l-9.89-.71a.5.5,0,0,1-.43-.29.52.52,0,0,1,.06-.51c0-.05,3-4.25-2.41-16-2.43-5.28-3-8.82-1.81-10.83a4.46,4.46,0,0,1,3.89-1.89,4.11,4.11,0,0,1,2.94,1.31c4.23,4,8,17,8.18,28.38a.47.47,0,0,1-.16.37A.48.48,0,0,1,201.85,250Zm-9.09-1.65,8.58.61c-.31-10.87-3.92-23.43-7.85-27.12a3.12,3.12,0,0,0-2.21-1,3.48,3.48,0,0,0-3.08,1.41c-1,1.68-.39,5,1.86,9.89C194.54,241.82,193.49,246.64,192.76,248.36Z" style="fill:#263238"></path><path d="M192,277.06h71.32a1.91,1.91,0,0,1,1.91,1.91v6.31a1.91,1.91,0,0,1-1.91,1.91H192a0,0,0,0,1,0,0V277.06A0,0,0,0,1,192,277.06Z" style="fill:#fff"></path><path d="M263.28,287.68H191.46V276.56h71.82a2.41,2.41,0,0,1,2.41,2.41v6.31A2.41,2.41,0,0,1,263.28,287.68Zm-70.82-1h70.82a1.41,1.41,0,0,0,1.41-1.4V279a1.41,1.41,0,0,0-1.41-1.41H192.46Z" style="fill:#263238"></path><path d="M242.41,257.76s12.55-5.12,17-2.47,9.36,17.14,9.36,17.14,4.24-8.31,6.71-4.95-2.29,8.66-3.71,10.25-3.88,1.59-7.59,0-16.79-11-16.79-11-9.19,2.3-11-1.06S242.41,257.76,242.41,257.76Z" style="fill:#90CAF9"></path><path d="M268.79,279.41a12.81,12.81,0,0,1-4.84-1.22c-3.52-1.51-15-9.68-16.69-10.88-1.68.4-9.5,2-11.3-1.36-2-3.74,5.87-8.42,6.2-8.62l.07,0c.52-.21,12.82-5.18,17.4-2.44,3.86,2.32,8,12.92,9.21,16.35,1-1.69,3.07-4.86,5.08-5a2.16,2.16,0,0,1,1.94,1c2.68,3.65-2.12,9.06-3.7,10.83A4.26,4.26,0,0,1,268.79,279.41Zm-21.43-13.14a.51.51,0,0,1,.29.1c.13.09,13.07,9.35,16.69,10.9s5.78,1.53,7,.13q5.88-6.63,3.68-9.62a1.13,1.13,0,0,0-1.05-.59c-1.54.12-3.77,3.42-4.82,5.47a.5.5,0,0,1-.48.27.5.5,0,0,1-.43-.34c0-.14-4.94-14.34-9.15-16.87-4-2.43-15.77,2.21-16.48,2.49-2.07,1.23-7,4.88-5.79,7.27s7.94,1.42,10.39.81Z" style="fill:#263238"></path><path d="M220,221.19s-5.3,20.14-6,26.5S212.2,269.6,221.92,274s18,3,20,1.94a37.25,37.25,0,0,1,5.48-2.12s1.77,4.42,5.3,6.54a94.16,94.16,0,0,0,10.1,4.64,7.89,7.89,0,0,0,6.09,0c1-.43,2.18-1,3.42-1.59,3.54-1.76,6.89-4.77,7.07-8.3a8.9,8.9,0,0,0-1.06-5.3,3.9,3.9,0,0,0-3.18.17c-1.41.89-3,3.18-4.06,4.42a16.06,16.06,0,0,1-2,1.95,38.93,38.93,0,0,1-5.47-8c-1.95-4.06-6.89-9-9.37-10.24l-2.47-1.24-5.66-17.67s-.53-8-2.29-12.36-3-7.25-6.89-9.72S223.16,217.13,220,221.19Z" style="fill:#90CAF9"></path><path d="M265.75,286.11a8.42,8.42,0,0,1-3.18-.63,93.86,93.86,0,0,1-10.17-4.67,15.14,15.14,0,0,1-5.32-6.36,34.9,34.9,0,0,0-5,1.95c-2,1.07-10.44,2.6-20.41-1.93-7-3.17-9.83-12.45-8.24-26.83.7-6.33,5.81-25.75,6-26.58a.76.76,0,0,1,.09-.18c3.38-4.32,13.6-6.74,17.63-4.17s5.27,5.42,7.08,9.95c1.72,4.28,2.27,11.65,2.33,12.46l5.57,17.41,2.29,1.14c2.71,1.35,7.66,6.46,9.59,10.48a37.53,37.53,0,0,0,5.07,7.46,18,18,0,0,0,1.52-1.56c.26-.31.55-.67.86-1.07a16.32,16.32,0,0,1,3.31-3.45,4.45,4.45,0,0,1,3.64-.22.55.55,0,0,1,.22.18,9.47,9.47,0,0,1,1.15,5.61c-.16,3.25-2.91,6.51-7.34,8.73-1.1.55-2.26,1.09-3.46,1.6A8.36,8.36,0,0,1,265.75,286.11Zm-18.39-12.77a.51.51,0,0,1,.47.32s1.75,4.28,5.09,6.29a95.76,95.76,0,0,0,10,4.6,7.35,7.35,0,0,0,5.71,0c1.18-.51,2.32-1,3.4-1.58,4.11-2.05,6.65-5,6.79-7.88a9.23,9.23,0,0,0-.89-4.86,3.35,3.35,0,0,0-2.59.19,15.67,15.67,0,0,0-3.06,3.23c-.32.4-.62.78-.88,1.09a17.37,17.37,0,0,1-2,2,.51.51,0,0,1-.69-.06,39.61,39.61,0,0,1-5.56-8.07c-2-4.09-6.88-8.89-9.13-10l-2.48-1.23a.5.5,0,0,1-.25-.3l-5.65-17.66a.5.5,0,0,1,0-.12c0-.08-.55-7.93-2.27-12.22-1.79-4.47-3-7.12-6.69-9.48s-13.09,0-16.24,3.87c-.4,1.56-5.3,20.31-6,26.33-1.55,13.91,1.1,22.83,7.66,25.81,9.61,4.37,17.67,3,19.52,2a37.5,37.5,0,0,1,5.57-2.16Z" style="fill:#263238"></path><path d="M256,268.89a25,25,0,0,1-8.66,4.95s7.78-.53,10.6-1.94" style="fill:#fff"></path><path d="M247.36,274.34a.5.5,0,0,1-.14-1,24.67,24.67,0,0,0,8.46-4.84.5.5,0,0,1,.68.74,24.36,24.36,0,0,1-5.61,3.74,26.18,26.18,0,0,0,7-1.55.5.5,0,0,1,.67.22.52.52,0,0,1-.22.68c-2.89,1.44-10.47,2-10.79,2Z" style="fill:#263238"></path><path d="M229.16,262.33a.49.49,0,0,1-.4-.21.51.51,0,0,1,.11-.7c.5-.36,12.35-8.94,23.08-5a.5.5,0,0,1,.3.64.5.5,0,0,1-.64.3c-10.22-3.75-22,4.79-22.15,4.88A.47.47,0,0,1,229.16,262.33Z" style="fill:#263238"></path><path d="M227,243.07a.49.49,0,0,1-.43-.26.5.5,0,0,1,.19-.68,41.52,41.52,0,0,0,8.19-5.74.5.5,0,0,1,.71,0,.48.48,0,0,1,0,.7,41.2,41.2,0,0,1-8.41,5.92A.54.54,0,0,1,227,243.07Z" style="fill:#263238"></path><path d="M226.16,247.66a.5.5,0,0,1-.16-1c5.08-1.69,11-10.66,11.05-10.75a.49.49,0,0,1,.69-.15.5.5,0,0,1,.15.69c-.25.38-6.17,9.36-11.57,11.16Z" style="fill:#263238"></path><path d="M240.65,199.28s-1.77-11.66-9.54-16.78-27,.88-30,15.55,11.49,22.43,14.31,23.14a52.26,52.26,0,0,0,6.36,1.06s11.66.35,18.2-3.71,5.83-11.48,4.77-14.13A16,16,0,0,0,240.65,199.28Z" style="fill:#fff"></path><path d="M222.55,222.76h-.82a54.32,54.32,0,0,1-6.47-1.07c-3.93-1-17.61-9.42-14.68-23.73,1.42-6.92,6.52-12.66,14-15.76,6.32-2.62,12.91-2.67,16.79-.11,7.42,4.89,9.46,15.36,9.73,16.94a16,16,0,0,1,4.07,5.2c1.21,3.05,1.6,10.66-5,14.75C234.55,222.48,225.36,222.76,222.55,222.76ZM224,181.21a24.19,24.19,0,0,0-9.06,1.9c-7.17,3-12.06,8.46-13.41,15-3,14.54,11.74,22,13.94,22.56a51.33,51.33,0,0,0,6.29,1c.08,0,11.56.3,17.89-3.63,6-3.76,5.68-10.74,4.57-13.53a15.53,15.53,0,0,0-3.92-4.92.5.5,0,0,1-.18-.31c0-.12-1.82-11.51-9.32-16.44A12.45,12.45,0,0,0,224,181.21Z" style="fill:#263238"></path><path d="M225.45,204.91a.4.4,0,0,1-.15,0,.49.49,0,0,1-.32-.62,4.88,4.88,0,0,1,4.15-3.36.5.5,0,0,1,.53.47.49.49,0,0,1-.47.53,3.88,3.88,0,0,0-3.26,2.66A.5.5,0,0,1,225.45,204.91Z" style="fill:#263238"></path><path d="M234.11,200.49a.49.49,0,0,1-.4-.8c.71-.92,2.54-2.35,4.38-1.18a.5.5,0,0,1-.54.84c-1.53-1-3,.87-3,1A.53.53,0,0,1,234.11,200.49Z" style="fill:#263238"></path><path d="M221.21,199.78a.52.52,0,0,1-.42-.22.51.51,0,0,1,.15-.7,9.06,9.06,0,0,1,7.88-.75.5.5,0,1,1-.38.93,8.13,8.13,0,0,0-6.95.66A.48.48,0,0,1,221.21,199.78Z" style="fill:#263238"></path><path d="M232.87,196.6a.49.49,0,0,1-.49-.43s-.36-3.24,3.67-4.77a.5.5,0,1,1,.36.93c-3.27,1.25-3,3.61-3,3.71a.51.51,0,0,1-.44.56Z" style="fill:#263238"></path><path d="M231.28,204.73a.5.5,0,0,1-.5-.5c0-.09,0-2.16,1.41-3,.89-.55,2.09-.46,3.56.28a.5.5,0,0,1-.45.89c-1.14-.57-2-.67-2.58-.32-.91.56-.94,2.15-.94,2.17A.5.5,0,0,1,231.28,204.73Z" style="fill:#263238"></path><path d="M240.12,205.11s-3.54-1.76-7.25,2.83.71,8.48,2.83,6.89,2.3-3.71,3.71-3.89,3.36-.17,3-2.65A3.93,3.93,0,0,0,240.12,205.11Z" style="fill:#263238"></path><path d="M234.58,215.69a3.45,3.45,0,0,1-2.42-1.12c-1.33-1.38-2-4,.32-6.94,3.8-4.7,7.47-3.15,7.84-3a4.44,4.44,0,0,1,2.59,3.57,2.69,2.69,0,0,1-.41,2.13,3.74,3.74,0,0,1-2.69,1.05l-.34,0c-.48.06-.77.48-1.29,1.29a8.88,8.88,0,0,1-2.18,2.5A2.32,2.32,0,0,1,234.58,215.69Zm3.81-10.42c-1.25,0-3.14.53-5.13,3s-1.43,4.54-.38,5.62a2,2,0,0,0,2.52.56,8,8,0,0,0,1.94-2.25c.53-.83,1-1.61,2-1.73l.35,0c.77-.09,1.63-.18,2-.67a1.82,1.82,0,0,0,.21-1.38,3.46,3.46,0,0,0-2-2.78l0,0A3.68,3.68,0,0,0,238.39,205.27Z" style="fill:#263238"></path><path d="M234.11,206.88l1.24,2.47,2.65-1.59-1.06-2.47A9.65,9.65,0,0,0,234.11,206.88Z" style="fill:#fff"></path><path d="M235.35,209.85a.32.32,0,0,1-.14,0,.49.49,0,0,1-.31-.25l-1.24-2.48a.5.5,0,0,1,.13-.6,9.85,9.85,0,0,1,3-1.68.49.49,0,0,1,.62.27l1.06,2.48a.5.5,0,0,1-.2.62l-2.66,1.59A.43.43,0,0,1,235.35,209.85Zm-.61-2.83.81,1.63,1.82-1.09-.7-1.63A9.29,9.29,0,0,0,234.74,207Z" style="fill:#263238"></path><path d="M215,209.35s-4.42-4.77-6.89-.53,3.86,7.87,5.3,7.42a4.84,4.84,0,0,0,3-3" style="fill:#fff"></path><path d="M213.16,216.78c-1.26,0-3.54-1.19-4.91-2.92a4.46,4.46,0,0,1-.54-5.29,3.59,3.59,0,0,1,2.71-2c2.46-.26,4.87,2.31,5,2.42a.51.51,0,0,1,0,.71.5.5,0,0,1-.71,0s-2.18-2.31-4.13-2.11a2.65,2.65,0,0,0-2,1.5,3.45,3.45,0,0,0,.46,4.16c1.41,1.78,3.72,2.7,4.26,2.53a4.44,4.44,0,0,0,2.68-2.68.5.5,0,0,1,.62-.33.51.51,0,0,1,.33.63,5.32,5.32,0,0,1-3.33,3.33A1.44,1.44,0,0,1,213.16,216.78Z" style="fill:#263238"></path><path d="M241.88,195.72a.5.5,0,0,1-.49-.45c0-.16-.37-4,2-4.6a1.45,1.45,0,0,1,1.44.31,2,2,0,0,1,.35,1.9A4.2,4.2,0,0,1,242,195.7Zm2-4.12a1,1,0,0,0-.22,0c-1.07.29-1.24,2-1.25,2.89a3.05,3.05,0,0,0,1.8-1.91,1,1,0,0,0-.09-.93A.3.3,0,0,0,243.83,191.6Z" style="fill:#263238"></path><path d="M222.66,187.62c-2.59,0-4.14-3.71-4.21-3.87a.5.5,0,0,1,.28-.65.49.49,0,0,1,.65.27s1.46,3.52,3.53,3.23c1.19-.17,2-1.7,2-3,0-.27,0-1.18-.65-1.3a2.42,2.42,0,0,0-2.31.81,1,1,0,0,0-.15,1.13c.13.26.27.42.37.4s.63-.46.83-1a.49.49,0,1,1,.94.31c-.27.82-.9,1.67-1.69,1.73a1.4,1.4,0,0,1-1.35-1,2,2,0,0,1,.25-2.18,3.4,3.4,0,0,1,3.29-1.19c.93.17,1.5,1,1.47,2.3,0,1.72-1.15,3.74-2.9,4A2.56,2.56,0,0,1,222.66,187.62Z" style="fill:#263238"></path><path d="M226.34,222.07,262,209.88s-.71-5.65,0-6.18.7-1.06,1.59-.18a5.18,5.18,0,0,1,1.06,2.65s7.06-4.06,7.59-2.65-1.59,2.65-1.59,2.65l-1.59.89s4.77-1.95,5.66-.71-1.59,2.47-1.59,2.47l-2.48,1.24s4.42-.88,4.42,0a3.09,3.09,0,0,1-1.06,2.12,22.47,22.47,0,0,1-2.65,1.77s3,.17,1.94,1.59-3.53,1.23-3.53,1.23a25,25,0,0,1-4.06,1.42,25.06,25.06,0,0,1-2.83.17l-22.09,15.38a21,21,0,0,1-11.13,3.88c-7.06.53-9.71-4.77-9.36-9.54S226.34,222.07,226.34,222.07Z" style="fill:#fff"></path><path d="M228.75,238.16a8.7,8.7,0,0,1-6.35-2.39,9.78,9.78,0,0,1-2.57-7.73c.36-4.88,5.89-6.33,6.37-6.45l35.28-12.05c-.44-3.69-.36-5.79.25-6.24.14-.11.25-.22.35-.31.56-.55,1-.68,1.89.18a4.78,4.78,0,0,1,1.08,2.22c1.87-1,5.79-3.07,7.12-2.58a.9.9,0,0,1,.57.54,2.18,2.18,0,0,1-.58,2.24c1.26-.24,2.49-.24,3,.47a1.41,1.41,0,0,1,.24,1.2c-.23.93-1.36,1.65-1.83,1.91a3,3,0,0,1,1.76.31.74.74,0,0,1,.28.58,3.46,3.46,0,0,1-1.21,2.47,10.81,10.81,0,0,1-1.61,1.16,1.86,1.86,0,0,1,1.18.85,1.21,1.21,0,0,1-.23,1.3c-1.07,1.43-3.27,1.46-3.84,1.44a23,23,0,0,1-4.08,1.4,22.17,22.17,0,0,1-2.74.18l-22,15.29a21.4,21.4,0,0,1-11.38,4C229.4,238.15,229.07,238.16,228.75,238.16Zm34.16-34.59-.14.14c-.12.11-.26.25-.44.39-.25.4-.11,3.3.19,5.72a.51.51,0,0,1-.33.54L226.5,222.55h-.06c-.05,0-5.29,1.22-5.61,5.56a8.78,8.78,0,0,0,2.27,6.94,8,8,0,0,0,6.56,2.06,20.84,20.84,0,0,0,10.85-3.77L262.62,218a.62.62,0,0,1,.29-.09,23.54,23.54,0,0,0,2.76-.17,24.47,24.47,0,0,0,3.93-1.37.38.38,0,0,1,.23,0s2.22.13,3.1-1c.12-.15.14-.25.13-.28a2.87,2.87,0,0,0-1.7-.51.51.51,0,0,1-.46-.39.5.5,0,0,1,.24-.54,21.56,21.56,0,0,0,2.55-1.69,2.74,2.74,0,0,0,.9-1.61,12.9,12.9,0,0,0-3.81.33.49.49,0,0,1-.57-.33.51.51,0,0,1,.25-.61l2.47-1.23c.51-.26,1.37-.86,1.49-1.36a.41.41,0,0,0-.08-.38c-.39-.54-3,0-5.06.88a.5.5,0,0,1-.43-.9l1.59-.88s1.73-1.06,1.36-2c-.49-.24-3.72,1.09-6.88,2.91a.49.49,0,0,1-.47,0,.52.52,0,0,1-.27-.4,4.57,4.57,0,0,0-.92-2.34A2,2,0,0,0,262.91,203.57Zm-36.57,18.5h0Z" style="fill:#263238"></path><path d="M255.5,212.11l-29.16,10s-5.66,1.24-6,6,2.3,10.07,9.36,9.54a21,21,0,0,0,11.13-3.88l19.07-13.27Z" style="fill:#90CAF9"></path><path d="M228.75,238.16a8.7,8.7,0,0,1-6.35-2.39,9.78,9.78,0,0,1-2.57-7.73c.38-5.08,6.34-6.44,6.4-6.45l29.11-10a.5.5,0,0,1,.61.24l4.38,8.36a.49.49,0,0,1-.16.64l-19.06,13.27a21.5,21.5,0,0,1-11.38,4C229.4,238.15,229.07,238.16,228.75,238.16Zm26.51-25.44-28.76,9.83c-.11,0-5.35,1.23-5.67,5.57a8.78,8.78,0,0,0,2.27,6.94,8,8,0,0,0,6.56,2.06,20.84,20.84,0,0,0,10.85-3.77l18.73-13Z" style="fill:#263238"></path><path d="M192,246.68v40.4h34.61S230.58,251.39,192,246.68Z" style="fill:#263238"></path><path d="M226.57,287.58H192a.5.5,0,0,1-.5-.5v-40.4a.48.48,0,0,1,.17-.37.47.47,0,0,1,.39-.12c38.66,4.71,35.09,40.59,35,40.95A.5.5,0,0,1,226.57,287.58Zm-34.11-1h33.65a42.25,42.25,0,0,0-2.84-17.78c-5-12.27-15.31-19.52-30.81-21.55Z" style="fill:#263238"></path><path d="M272.25,258.08h-55.8a3.21,3.21,0,0,1-1.75-.53l-8.39-5.6H191.49a3.15,3.15,0,0,1,0-6.3h15.78a3.15,3.15,0,0,1,1.74.53l8.39,5.6h54.85a3.15,3.15,0,1,1,0,6.3Z" style="fill:#fff"></path><path d="M272.26,258.58H216.45a3.7,3.7,0,0,1-2-.62l-8.26-5.51H191.49a3.65,3.65,0,0,1,0-7.3h15.78a3.56,3.56,0,0,1,2,.62l8.26,5.51h54.71a3.65,3.65,0,1,1,0,7.3Zm-80.77-12.43a2.65,2.65,0,0,0,0,5.3h15l8.52,5.68a2.68,2.68,0,0,0,1.47.45h55.81a2.65,2.65,0,1,0,0-5.3h-55l-8.51-5.68a2.68,2.68,0,0,0-1.47-.45Z" style="fill:#263238"></path></g></svg>
